<?xml version="1.0" encoding="utf-8"?>
<!-- Generator: Adobe Illustrator 23.0.1, SVG Export Plug-In . SVG Version: 6.00 Build 0)  -->
<svg version="1.1" id="Layer_1" xmlns="http://www.w3.org/2000/svg" xmlns:xlink="http://www.w3.org/1999/xlink" x="0px" y="0px"
	 viewBox="0 0 512 512" style="enable-background:new 0 0 512 512;" xml:space="preserve">
<style type="text/css">
	.st0{display:none;}
	.st1{display:inline;fill:#444444;}
	.st2{display:inline;}
	.st3{fill:#444444;}
	.st4{display:none;fill:#444444;}
</style>
<g class="st0">
	<path class="st1" d="M136.27,88.17h16.03v15.03h-16.03V88.17z"/>
	<path class="st1" d="M168.33,88.17h16.03v15.03h-16.03V88.17z"/>
	<path class="st1" d="M200.39,88.17h16.03v15.03h-16.03V88.17z"/>
	<path class="st1" d="M427.94,335.66h19.93v-47.09H240.47v47.09h20.93l33.07,33.06h-87.06v-33.06h17.03v-15.03h-17.03v-33.06h17.03
		v-15.03h-17.03v-33.06h33.06v32.06h15.03v-32.06h33.06v32.06h15.03v-95.19H48.09v207.41h261.4l11.13,11.13v9.8l-11.13,12.13H15.03
		V143.28h321.62v120.23h15.03V48.09h-48.09V15.03c0-8.57-6.46-15.03-15.03-15.03h-24.05c-8.56,0-16.03,6.46-16.03,15.03v33.06
		H120.23v15.03h128.25v40.08h55.11V63.13h33.06v65.13H15.03V63.13h33.06v40.08h55.11V15.03C103.2,6.46,96.73,0,88.17,0H64.13
		c-8.56,0-16.03,6.46-16.03,15.03v33.06H0v383.75h294.47l-33.07,33.06h-20.93V512h207.41v-47.09h-19.93l-60.22-60.22v-9.8
		L427.94,335.66z M192.38,368.72h-33.06v-33.06h33.06V368.72z M144.28,224.44h-33.06v-33.06h33.06V224.44z M159.31,191.38h33.06
		v33.06h-33.06V191.38z M144.28,239.47v33.06h-33.06v-33.06H144.28z M96.19,272.53H63.13v-33.06h33.06V272.53z M96.19,287.56v33.06
		H63.13v-33.06H96.19z M111.22,287.56h33.06v33.06h-33.06V287.56z M144.28,335.66v33.06h-33.06v-33.06H144.28z M192.38,320.63
		h-33.06v-33.06h33.06V320.63z M192.38,272.53h-33.06v-33.06h33.06V272.53z M207.41,224.44v-33.06h33.06v33.06H207.41z
		 M288.56,224.44H255.5v-33.06h33.06V224.44z M96.19,191.38v33.06H63.13v-33.06H96.19z M63.13,335.66h33.06v33.06H63.13V335.66z
		 M288.56,88.17h-25.05V15.03c0-0.28,0.73,0,1,0h24.05c0.28,0,0-0.28,0,0V88.17z M63.13,15.03c0-0.28,0.73,0,1,0h24.05
		c0.28,0,0-0.28,0,0v73.14H63.13V15.03z M255.5,303.59h177.34v17.03H255.5V303.59z M432.84,496.97H255.5v-17.03h177.34V496.97z
		 M406.69,464.91H282.66l53-54v-22.26l-53-53h124.03l-54,53v22.26L406.69,464.91z"/>
</g>
<g transform="translate(0 -1)" class="st0">
	<g class="st2">
		<g>
			<path class="st3" d="M449.56,128.8c-8.55-29.07-26.3-54.58-50.57-72.73C351.27,18.64,306.66,3.12,254.47,5.79
				c-27.52,1.9-54.86,5.81-81.82,11.69c-38.16,7.68-65.87,21.1-84.74,41.01c-14.96,15.93-26.51,34.75-33.93,55.3
				c-3.14,9.01-5.69,18.21-7.65,27.54l-0.71,3.06c-1.78,6.58-4.18,12.97-7.17,19.09c-1.76,3.92-3.51,7.85-5.01,11.84
				c-1.95,4.47-2.74,9.37-2.28,14.24c1.72,7.56,6.1,14.25,12.34,18.84c4.15,3.8,6.87,6.47,6.9,8.9c-0.33,1.26-0.83,2.48-1.48,3.61
				c-10.13,21.35-22.54,41.54-37.02,60.22C5.83,288.55-0.54,297.2,0.75,306c1.84,6.67,6.25,12.34,12.26,15.77
				c2.8,1.94,5.75,3.66,8.82,5.12c3.65,1.86,9.76,4.98,10.18,7.2c0.56,2.86,0.23,5.81-0.93,8.48c-1.26,2.65-2.56,4.94-3.68,6.92
				c-3.11,5.49-8.31,14.69-0.46,21.26c1.83,1.61,4.95,4.07,7.81,6.25c-2.12,3.72-3.07,7.98-2.73,12.25
				c0.46,3.31,2.26,6.28,4.98,8.22c1.89,1.34,3.92,2.51,5.92,3.66c4.97,2.83,6.91,4.16,7.58,6.79c0.44,3.44,0.13,6.94-0.92,10.26
				c-0.49,2.22-0.97,4.44-1.26,6.65c-0.85,7.69,0.12,15.48,2.83,22.73c4.39,16.06,20.58,25.88,36.85,22.36
				c24.15-5.82,47.97-12.95,71.36-21.34c19.01,11.23,31.02,45.22,34.15,57.96c0.93,3.78,4.32,6.44,8.22,6.44h213.85
				c2.68,0,5.2-1.27,6.8-3.43c1.6-2.16,2.07-4.94,1.29-7.5c-2.26-5.96-5.48-11.51-9.52-16.44c-2.29-2.92-4.33-6.04-6.1-9.31
				c-3.81-7.8-7.01-15.89-9.56-24.19c-4.84-16.33-8.17-33.08-9.97-50.02c-2.99-25.29,0.83-50.93,11.06-74.25
				c6.26-12.91,13.96-25.07,22.96-36.24c5.11-6.88,10.39-13.99,15.15-21.49c13.35-20.74,20.53-44.85,20.7-69.52
				C458.91,176.38,455.93,152.19,449.56,128.8z M441.49,200.38c-0.14,21.54-6.41,42.6-18.08,60.71
				c-4.42,6.96-9.51,13.82-14.43,20.45c-9.77,12.2-18.12,25.47-24.89,39.56c-11.44,26.09-15.7,54.76-12.35,83.05
				c1.91,17.95,5.46,35.68,10.6,52.98c2.8,9.12,6.31,18,10.49,26.57c2.2,4.19,4.76,8.18,7.67,11.92c0.12,0.15,0.23,0.31,0.34,0.47
				h-192.7c-5.63-20.08-15.84-38.57-29.82-54.04c2.21-0.77,4.31-1.51,6.26-2.19c6.33-2.22,11.11-3.89,13.51-4.65
				c36.26-11.38,54.4-27.86,53.9-48.98c-0.11-4.67-3.99-8.37-8.66-8.26c-4.67,0.11-8.37,3.99-8.26,8.66
				c0.21,8.71-6.92,21.42-42.07,32.45c-2.49,0.79-7.46,2.52-14.03,4.82c-6.06,2.12-13.53,4.74-21.7,7.53l-0.05,0.02
				c-23.81,8.62-48.07,15.94-72.66,21.94c-7.92,1.54-15.64-3.48-17.45-11.35c-1.83-4.75-2.53-9.86-2.04-14.93
				c0.23-1.75,0.63-3.5,1.02-5.25c1.73-5.87,2-12.07,0.79-18.07c-2.42-7.77-8.12-14.09-15.59-17.32c-0.6-0.34-1.21-0.69-1.81-1.04
				c0.9-1.85,1.99-3.61,3.24-5.24c1.41-1.8,2.03-4.09,1.73-6.35c-0.31-2.26-1.52-4.31-3.35-5.66c-2.03-1.5-6.86-5.12-10.34-7.9
				c0.43-0.79,0.92-1.65,1.36-2.43c1.3-2.3,2.78-4.94,4.23-7.98c2.71-5.92,3.5-12.53,2.27-18.92
				c-1.97-10.37-11.89-15.42-19.12-19.11c-2.45-1.16-4.8-2.52-7.03-4.07c-1.76-1.22-3.42-2.57-4.98-4.03
				c0.02-1.27,1.35-4.37,7.86-12.31c15.12-19.49,28.07-40.55,38.65-62.83c2.04-3.49,3.17-7.43,3.31-11.47
				c-0.86-8.52-5.38-16.25-12.39-21.17c-3.42-3.13-6.65-6.09-7.01-8.68c0.03-2.05,0.49-4.08,1.35-5.95
				c1.39-3.69,3.02-7.3,4.63-10.91c3.45-7.1,6.2-14.52,8.2-22.16l0.72-3.08c1.8-8.64,4.15-17.15,7.04-25.49
				c6.64-18.4,16.96-35.26,30.34-49.54c16.39-17.3,41.18-29.09,75.8-36.06c26.14-5.71,52.66-9.52,79.35-11.38
				c47.87-2.41,88.94,11.96,133.23,46.71c21.52,15.87,37.23,38.37,44.72,64.03C439.21,155.23,441.97,177.78,441.49,200.38z"/>
			<path class="st3" d="M405.4,142.3h-17.54c-1.95-6.62-4.6-13.01-7.91-19.06l12.41-12.41c2.9-2.9,3.3-7.46,0.96-10.82
				c-8.13-11.67-18.27-21.8-29.93-29.93c-3.36-2.35-7.92-1.95-10.82,0.95l-12.41,12.41c-6.06-3.31-12.45-5.96-19.07-7.9V57.99
				c0-4.1-2.94-7.6-6.97-8.33c-14.01-2.47-28.34-2.47-42.34,0c-4.03,0.72-6.97,4.23-6.97,8.33v17.54c-6.62,1.95-13.02,4.6-19.07,7.9
				l-12.41-12.41c-2.9-2.9-7.46-3.31-10.82-0.95c-11.67,8.13-21.8,18.27-29.93,29.93c-2.35,3.36-1.94,7.92,0.96,10.82l12.41,12.41
				c-3.31,6.05-5.96,12.45-7.9,19.06H180.5c-4.1,0-7.61,2.94-8.33,6.97c-2.49,14.01-2.49,28.34,0,42.35
				c0.72,4.03,4.23,6.97,8.33,6.97h17.54c1.95,6.62,4.6,13.01,7.91,19.06l-12.41,12.41c-2.9,2.9-3.3,7.46-0.96,10.82
				c8.13,11.67,18.27,21.8,29.93,29.93c3.36,2.34,7.92,1.94,10.82-0.95l12.41-12.41c6.06,3.31,12.45,5.96,19.07,7.91v17.54
				c0,4.1,2.94,7.6,6.97,8.33c14,2.48,28.34,2.48,42.34,0c4.03-0.72,6.97-4.23,6.97-8.33v-17.54c6.62-1.95,13.02-4.6,19.07-7.91
				l12.41,12.41c2.9,2.89,7.46,3.3,10.82,0.95c11.67-8.13,21.8-18.27,29.93-29.93c2.35-3.36,1.94-7.92-0.96-10.82l-12.41-12.41
				c3.31-6.06,5.96-12.45,7.91-19.06h17.54c4.1,0,7.61-2.94,8.33-6.97c2.49-14.01,2.49-28.34,0-42.35
				C413.01,145.23,409.5,142.3,405.4,142.3z M398.07,181.67H381.3c-3.97,0-7.41,2.76-8.26,6.64c-2.03,9.28-5.69,18.12-10.82,26.11
				c-2.16,3.34-1.69,7.74,1.13,10.55l11.87,11.87c-4.7,5.85-10.03,11.17-15.88,15.88l-11.87-11.87c-2.81-2.81-7.2-3.29-10.55-1.14
				c-7.99,5.13-16.84,8.8-26.12,10.83c-3.88,0.85-6.64,4.29-6.64,8.26v16.77c-7.46,0.8-14.99,0.8-22.45,0V258.8
				c0-3.97-2.76-7.41-6.64-8.26c-9.28-2.03-18.13-5.69-26.12-10.83c-3.34-2.16-7.74-1.68-10.55,1.14l-11.87,11.87
				c-5.85-4.7-11.17-10.03-15.88-15.88l11.87-11.87c2.82-2.81,3.29-7.21,1.13-10.55c-5.13-7.99-8.79-16.83-10.82-26.11
				c-0.85-3.88-4.29-6.64-8.26-6.64h-16.77c-0.8-7.46-0.8-14.99,0-22.46l0,0h16.77c3.97,0,7.41-2.76,8.26-6.64
				c2.03-9.28,5.69-18.12,10.82-26.11c2.16-3.34,1.69-7.74-1.13-10.55l-11.87-11.87c4.7-5.85,10.03-11.17,15.88-15.88l11.87,11.87
				c2.81,2.82,7.2,3.29,10.55,1.14c7.99-5.13,16.84-8.8,26.12-10.83c3.88-0.85,6.64-4.29,6.64-8.26V65.32
				c7.46-0.8,14.99-0.8,22.45,0v16.77c0,3.97,2.76,7.41,6.64,8.26c9.28,2.03,18.12,5.69,26.12,10.83c3.35,2.15,7.74,1.67,10.55-1.14
				l11.87-11.87c5.85,4.7,11.17,10.03,15.88,15.88l-11.87,11.87c-2.82,2.81-3.29,7.21-1.13,10.55c5.13,7.99,8.79,16.83,10.82,26.11
				c0.85,3.88,4.29,6.64,8.26,6.64h16.77C398.88,166.68,398.88,174.21,398.07,181.67z"/>
			<path class="st3" d="M178.76,250.8h-9.66c-0.79-3.03-2-5.93-3.59-8.62l6.84-6.85c3.3-3.3,3.3-8.66,0-11.96
				c-3.3-3.3-8.66-3.3-11.96,0l-6.84,6.85c-2.69-1.59-5.59-2.8-8.62-3.59v-9.66c0-4.67-3.79-8.46-8.46-8.46
				c-4.67,0-8.46,3.79-8.46,8.46v9.66c-3.03,0.79-5.93,2-8.62,3.59l-6.84-6.85c-2.14-2.14-5.25-2.97-8.17-2.19
				c-2.92,0.78-5.2,3.06-5.98,5.98c-0.78,2.92,0.05,6.03,2.19,8.17l6.84,6.85c-1.6,2.69-2.81,5.59-3.59,8.62h-9.66
				c-4.67,0-8.46,3.79-8.46,8.46c0,4.67,3.79,8.46,8.46,8.46h9.66c0.79,3.03,2,5.93,3.59,8.62l-6.84,6.85
				c-2.14,2.14-2.97,5.25-2.19,8.17c0.78,2.92,3.06,5.2,5.98,5.98c2.92,0.78,6.03-0.05,8.17-2.19l6.84-6.84
				c2.69,1.59,5.59,2.8,8.62,3.59v9.66c0,4.67,3.79,8.46,8.46,8.46c4.67,0,8.46-3.79,8.46-8.46v-9.66c3.03-0.79,5.93-2,8.62-3.59
				l6.84,6.84c3.3,3.3,8.66,3.3,11.96,0c3.3-3.3,3.3-8.66,0-11.96l-6.84-6.85c1.6-2.69,2.81-5.59,3.59-8.62h9.66
				c4.67,0,8.46-3.79,8.46-8.46C187.22,254.58,183.43,250.8,178.76,250.8z M136.47,276.17c-9.34,0-16.92-7.57-16.92-16.92
				c0-9.34,7.57-16.92,16.92-16.92c9.34,0,16.92,7.57,16.92,16.92C153.38,268.59,145.81,276.16,136.47,276.17z"/>
			<path class="st3" d="M92.19,166.21c0.52,1.7,1.2,3.34,2.03,4.91l-4.57,4.58c-2.14,2.14-2.97,5.25-2.19,8.17
				c0.78,2.92,3.06,5.2,5.98,5.98c2.92,0.78,6.03-0.05,8.17-2.19l4.59-4.59c1.56,0.83,3.2,1.51,4.89,2.03v6.49
				c0,4.67,3.79,8.46,8.46,8.46c4.67,0,8.46-3.79,8.46-8.46v-6.49c1.69-0.52,3.33-1.2,4.89-2.03l4.59,4.59c3.3,3.3,8.66,3.3,11.96,0
				c3.3-3.3,3.3-8.66,0-11.96l-4.58-4.58c0.83-1.57,1.51-3.21,2.03-4.91h6.47c4.67,0,8.46-3.79,8.46-8.46
				c0-4.67-3.79-8.46-8.46-8.46h-6.47c-0.52-1.7-1.2-3.34-2.03-4.91l4.58-4.58c2.14-2.14,2.97-5.25,2.19-8.17
				c-0.78-2.92-3.06-5.2-5.98-5.98c-2.92-0.78-6.03,0.05-8.17,2.19l-4.59,4.59c-1.56-0.83-3.2-1.5-4.89-2.03v-6.49
				c0-4.67-3.79-8.46-8.46-8.46c-4.67,0-8.46,3.79-8.46,8.46v6.49c-1.69,0.52-3.33,1.2-4.89,2.03l-4.59-4.59
				c-3.3-3.3-8.66-3.3-11.96,0c-3.3,3.3-3.3,8.66,0,11.96l4.58,4.58c-0.83,1.57-1.51,3.21-2.03,4.91h-6.47
				c-4.67,0-8.46,3.79-8.46,8.46c0,4.67,3.79,8.46,8.46,8.46L92.19,166.21L92.19,166.21z M116.49,146.31
				c5.18-1.39,10.64,0.87,13.33,5.52c2.68,4.64,1.91,10.51-1.88,14.3c-3.39,3.39-8.48,4.4-12.91,2.57
				c-4.43-1.83-7.31-6.15-7.31-10.94C107.71,152.39,111.31,147.7,116.49,146.31z"/>
			<path class="st3" d="M292.95,115.46c-30.36,0-54.98,24.61-54.98,54.98c0.03,30.35,24.63,54.94,54.98,54.98
				c30.36,0,54.98-24.61,54.98-54.98S323.31,115.46,292.95,115.46z M292.95,208.5c-21.02,0-38.06-17.04-38.06-38.06
				c0.02-21.01,17.05-38.04,38.06-38.06c21.02,0,38.06,17.04,38.06,38.06C331.01,191.46,313.97,208.5,292.95,208.5z"/>
		</g>
	</g>
</g>
<g class="st0">
	<g class="st2">
		<g>
			<path class="st3" d="M350.06,85.06H96.46c-3.61,0-6.53,2.92-6.53,6.53c0,3.61,2.92,6.53,6.53,6.53h253.6
				c3.61,0,6.53-2.92,6.53-6.53C356.59,87.98,353.66,85.06,350.06,85.06z"/>
		</g>
	</g>
	<g class="st2">
		<g>
			<path class="st3" d="M350.06,156.15H96.46c-3.61,0-6.53,2.92-6.53,6.53c0,3.61,2.92,6.53,6.53,6.53h253.6
				c3.61,0,6.53-2.92,6.53-6.53C356.59,159.07,353.66,156.15,350.06,156.15z"/>
		</g>
	</g>
	<g class="st2">
		<g>
			<path class="st3" d="M266.92,202.28H179.6c-3.61,0-6.53,2.92-6.53,6.53c0,3.61,2.92,6.53,6.53,6.53h87.32
				c3.61,0,6.53-2.92,6.53-6.53C273.44,205.2,270.52,202.28,266.92,202.28z"/>
		</g>
	</g>
	<g class="st2">
		<g>
			<path class="st3" d="M350.06,120.46H160.89c-3.61,0-6.53,2.92-6.53,6.53c0,3.61,2.92,6.53,6.53,6.53h189.16
				c3.61,0,6.53-2.92,6.53-6.53C356.59,123.38,353.66,120.46,350.06,120.46z"/>
		</g>
	</g>
	<g class="st2">
		<g>
			<path class="st3" d="M130.52,120.46H96.46c-3.61,0-6.53,2.92-6.53,6.53c0,3.61,2.92,6.53,6.53,6.53h34.06
				c3.61,0,6.53-2.92,6.53-6.53C137.05,123.38,134.12,120.46,130.52,120.46z"/>
		</g>
	</g>
	<g class="st2">
		<g>
			<path class="st3" d="M412.23,74.02c-1.52-1.49-3.53-2.31-5.67-2.31c0,0,0,0,0,0c-13.23,0-24.06-10.34-24.66-23.55
				c-0.2-4.3-3.73-7.66-8.04-7.66H71.1c-4.31,0-7.84,3.36-8.04,7.66c-0.57,12.62-10.9,22.96-23.52,23.52
				c-4.3,0.19-7.66,3.72-7.66,8.04v168.76c0,4.31,3.37,7.84,7.66,8.04c12.62,0.57,22.96,10.9,23.52,23.53
				c0.2,4.3,3.73,7.66,8.04,7.66h192.73c3.61,0,6.53-2.92,6.53-6.53c0-3.61-2.92-6.53-6.53-6.53H75.59
				c-2.7-15.73-14.93-27.96-30.66-30.66V84.21c15.73-2.7,27.96-14.93,30.66-30.66h293.77c2.81,16.22,15.87,28.74,32.21,30.89v110.88
				c0,3.61,2.92,6.53,6.53,6.53c3.61,0,6.53-2.92,6.53-6.53V79.76C414.63,77.58,413.78,75.55,412.23,74.02z"/>
		</g>
	</g>
	<g class="st2">
		<g>
			<path class="st3" d="M427.81,7.91H18.7c-9.99,0-18.12,8.13-18.12,18.12v276.14c0,9.99,8.13,18.12,18.12,18.12h274.04l-9.7,20.33
				c-1.25,2.61-0.94,5.67,0.79,7.99c1.73,2.32,4.59,3.47,7.44,3.01l18.06-2.9l10.08,16.54c1.41,2.32,3.92,3.72,6.62,3.72
				c0.13,0,0.26,0,0.4-0.01c2.85-0.14,5.38-1.83,6.61-4.4l17.51-36.68l17.5,36.68c1.23,2.57,3.76,4.26,6.6,4.41
				c0.13,0.01,0.27,0.01,0.4,0.01c2.7,0,5.21-1.4,6.62-3.72l10.07-16.54l18.06,2.9c2.86,0.46,5.71-0.7,7.44-3.01
				c1.73-2.32,2.03-5.38,0.79-7.98l-9.7-20.33h19.48c9.99,0,18.12-8.13,18.12-18.12V26.03C445.93,16.04,437.8,7.91,427.81,7.91z
				 M325.46,350.1l-6.83-11.22c-1.65-2.7-4.73-4.12-7.85-3.62l-11.6,1.87l12.22-25.6c4.82,4.91,11.68,7.57,18.8,6.9
				c2.43-0.23,4.88,0.42,6.87,1.84c0.66,0.47,1.34,0.88,2.03,1.27L325.46,350.1z M352.09,311.39c-0.02,0-0.04,0-0.06,0.01
				c-0.99,0.15-2,0.15-2.99,0c-0.02,0-0.05-0.01-0.07-0.01c-1.53-0.24-3.02-0.82-4.34-1.76c-3.95-2.81-8.66-4.3-13.47-4.3
				c-0.73,0-1.46,0.03-2.19,0.1c-4.32,0.41-8.43-1.97-10.23-5.91c-0.8-1.75-1.82-3.37-3.01-4.85c-0.05-0.07-0.11-0.14-0.16-0.21
				c-0.07-0.08-0.13-0.16-0.19-0.24c-0.08-0.09-0.15-0.17-0.24-0.26c-2.16-2.48-4.83-4.51-7.87-5.9c-3.94-1.8-6.32-5.92-5.91-10.23
				c0.53-5.56-0.96-11.12-4.2-15.67c-2.51-3.53-2.51-8.28,0-11.82c3.23-4.55,4.72-10.11,4.2-15.66c-0.41-4.32,1.97-8.43,5.91-10.23
				c5.07-2.32,9.15-6.39,11.47-11.47c1.8-3.94,5.93-6.32,10.23-5.91c5.56,0.53,11.12-0.97,15.67-4.2c3.53-2.51,8.28-2.51,11.82,0
				c4.55,3.23,10.11,4.72,15.67,4.2c4.32-0.41,8.43,1.97,10.23,5.91c2.32,5.07,6.39,9.15,11.47,11.47
				c3.94,1.81,6.32,5.92,5.91,10.23c-0.53,5.56,0.96,11.12,4.2,15.66c2.51,3.53,2.51,8.28,0,11.82c-3.23,4.55-4.72,10.11-4.2,15.66
				c0.41,4.32-1.97,8.43-5.91,10.23c-3.03,1.39-5.69,3.41-7.85,5.89c-0.09,0.09-0.18,0.19-0.26,0.28c-0.06,0.07-0.11,0.14-0.17,0.21
				c-0.07,0.08-0.13,0.16-0.19,0.25c-1.18,1.48-2.2,3.09-3,4.84c-1.81,3.94-5.92,6.32-10.23,5.91c-5.55-0.52-11.12,0.96-15.67,4.2
				C355.12,310.56,353.63,311.15,352.09,311.39z M390.29,335.26c-3.13-0.5-6.21,0.92-7.85,3.62l-6.83,11.22l-13.63-28.56
				c0.69-0.39,1.37-0.81,2.03-1.27c2-1.42,4.44-2.08,6.87-1.84c7.12,0.67,13.98-1.98,18.8-6.9l12.22,25.6L390.29,335.26z
				 M432.87,302.17c0,2.79-2.27,5.07-5.07,5.07h-25.71l-3.37-7.05c0.17-0.09,0.34-0.18,0.51-0.26c8.99-4.11,14.41-13.49,13.47-23.34
				c-0.23-2.44,0.42-4.88,1.84-6.87c5.73-8.06,5.73-18.89,0-26.95c-1.42-1.99-2.07-4.43-1.84-6.87c0.93-9.84-4.48-19.22-13.47-23.34
				c-2.22-1.02-4.01-2.8-5.03-5.03c-4.11-8.99-13.5-14.4-23.34-13.47c-2.44,0.23-4.87-0.42-6.87-1.84c-8.06-5.73-18.89-5.73-26.95,0
				c-1.99,1.42-4.44,2.07-6.87,1.84c-9.86-0.93-19.22,4.48-23.34,13.47c-1.02,2.22-2.8,4.01-5.03,5.03
				c-8.99,4.12-14.41,13.49-13.47,23.34c0.23,2.44-0.42,4.87-1.84,6.87c-5.73,8.06-5.73,18.89,0,26.95
				c1.42,1.99,2.07,4.43,1.84,6.87c-0.93,9.84,4.48,19.22,13.47,23.34c0.18,0.08,0.34,0.17,0.51,0.26l-3.37,7.06H18.7
				c-2.79,0-5.07-2.27-5.07-5.07V26.03c0-2.79,2.27-5.07,5.07-5.07h409.1c2.79,0,5.07,2.27,5.07,5.07L432.87,302.17L432.87,302.17z"
				/>
		</g>
	</g>
	<g class="st2">
		<g>
			<path class="st3" d="M350.06,215.68c-22.37,0-40.56,18.2-40.56,40.56c0,22.37,18.2,40.56,40.56,40.56
				c22.37,0,40.56-18.2,40.56-40.56C390.62,233.88,372.42,215.68,350.06,215.68z M350.06,283.75c-15.17,0-27.51-12.34-27.51-27.51
				c0-15.17,12.34-27.51,27.51-27.51c15.17,0,27.51,12.34,27.51,27.51C377.56,271.41,365.22,283.75,350.06,283.75z"/>
		</g>
	</g>
</g>
<path class="st4" d="M169.45,143.52c-7.75,0-14.97,4.17-18.85,10.89c-2.92,5.05-9.38,6.78-14.43,3.86
	c-5.05-2.92-6.78-9.38-3.86-14.43c7.65-13.22,21.88-21.44,37.14-21.44c15.26,0,29.49,8.21,37.14,21.44
	c2.92,5.05,1.2,11.51-3.85,14.43c-1.66,0.96-3.48,1.42-5.28,1.42c-3.65,0-7.2-1.89-9.15-5.28
	C184.42,147.69,177.19,143.52,169.45,143.52z M225.01,255.52c-7.75,0-14.97-4.17-18.86-10.89c-2.92-5.05-9.38-6.78-14.43-3.86
	c-5.05,2.92-6.78,9.38-3.86,14.43c7.65,13.22,21.88,21.44,37.14,21.44c15.26,0,29.49-8.21,37.14-21.44
	c2.92-5.05,1.2-11.51-3.85-14.43c-5.05-2.92-11.51-1.2-14.43,3.85C239.98,251.34,232.75,255.52,225.01,255.52z M445.93,152.57v48.17
	c0,17.97-14.14,33.1-32.1,33.1h-19.51c-6.41,19.95-16.57,39.27-30.26,56.53c-22.5,28.37-53.45,48.97-87.88,59.36
	c-1.55,17.38-16.18,30.8-33.95,30.8h-34.44c-18.8,0-34.09-15.24-34.09-34.03c0-18.8,15.29-34.03,34.09-34.03h34.44
	c12.37,0,23.23,6.81,29.2,16.7c65.1-20.14,109.82-80.08,109.82-149.05c0-67.12-42.54-124.5-102.09-146.57
	c-15.47,19.02-34.93,34.85-56.67,46.04c-24.87,12.8-52.89,19.56-81.04,19.56c-3.27,0-6.59-0.09-9.88-0.27
	c-5.82-0.32-10.29-5.3-9.97-11.12c0.32-5.82,5.28-10.32,11.12-9.97c2.91,0.16,5.85,0.24,8.73,0.24c44.6,0,85.85-18.37,115.4-50.89
	c-9.89-2.06-20.11-3.18-30.59-3.26c-0.06-0.01-0.16-0.01-0.25-0.01c-0.04,0-0.08-0.03-0.12-0.03c-0.08,0-0.17-0.05-0.25-0.05
	c-0.04,0-0.08,0-0.12,0c-0.08,0-0.17,0-0.26,0c-0.04,0-0.07,0-0.12,0c-0.05,0-0.1,0-0.15,0c-86.15,0-155.79,70.19-155.79,156.35
	v42.64c0,5.83-5.18,11.08-11.02,11.08H36.18c-17.97,0-32.69-15.13-32.69-33.1v-48.17c0-14.19,9.14-26.66,22.68-31.02
	c5.55-1.79,11.54,1.26,13.33,6.82c1.79,5.55-1.29,11.5-6.84,13.29c-4.7,1.51-8.04,6-8.04,10.91v48.17c0,6.32,5.25,11.98,11.56,11.98
	h11.91v-32.6c0-97.8,79.11-177.47,176.92-177.47c0.06,0,0.11,0,0.17,0c0.04,0,0.09,0,0.13,0c0.04,0,0.09,0,0.13,0h0
	c0.05,0,0.11,0,0.17,0c0.04,0,0.09,0,0.13,0c0.04,0,0.09,0,0.13,0h0.01c0.06,0,0.11,0,0.16,0c0.05,0,0.09,0,0.13,0
	c0.04,0,0.1,0,0.14,0c0.05,0,0.1,0,0.15,0c0.05,0,0.08,0,0.13,0c0.06,0,0.1,0,0.15,0c0.05,0,0.1,0,0.15,0c0.04,0,0.09,0,0.13,0
	c0.06,0,0.11,0,0.17,0c0.04,0,0.1,0,0.14,0c0.04,0,0.09,0,0.13,0c0.05,0,0.12,0,0.17,0c0.05,0,0.09,0,0.13,0
	c0.04,0,0.09,0.07,0.12,0.06c0.06,0,0.11,0.06,0.17,0.07c0.04,0,0.09,0,0.13,0c0.04,0,0.09,0,0.13,0c0.06,0,0.12,0,0.17,0
	c0.04,0,0.08,0,0.13,0c0.04,0,0.09,0,0.13,0c0.05,0,0.12,0,0.18,0c0.04,0,0.08,0,0.13,0c0.04,0,0.08,0,0.12,0c0.05,0,0.12,0,0.17,0
	c0.04,0,0.08,0,0.13,0c0.04,0,0.08,0,0.13,0c0.06,0,0.12,0,0.17,0c0.04,0,0.08,0,0.13,0c0.04,0,0.09,0,0.13,0c0.06,0,0.1,0,0.15,0
	c0.05,0,0.09,0,0.14,0c0.05,0,0.08,0,0.13,0c0.05,0,0.09-0.02,0.14-0.01c0.05,0,0.1-0.03,0.15-0.02c0.05,0,0.08-0.05,0.13-0.05
	c0.09,0,0.18-0.09,0.27-0.09h0.01c0.04,0,0.09,0,0.13,0h0.01c16.14,1.17,32.05,3.47,47.38,8.34c0.21,0.07,0.43,0.31,0.63,0.4
	c71.33,22.99,123.07,90.13,123.07,169c0,10.89-0.96,21.77-2.86,32.34h14.31c6.32,0,10.98-5.66,10.98-11.98v-48.17
	c0-4.91-3.11-9.4-7.81-10.91c-5.55-1.79-8.43-7.74-6.64-13.29c1.79-5.55,7.62-8.6,13.17-6.82
	C437.07,125.91,445.93,138.38,445.93,152.57z M255.19,346.64c0-0.87-0.09-1.53-0.25-2.36c-0.02-0.1-0.04-0.29-0.06-0.4
	c-1.3-5.78-6.48-10.29-12.65-10.29h-34.44c-7.15,0-12.97,5.76-12.97,12.91c0,7.15,5.82,12.91,12.97,12.91h34.44
	C249.38,359.41,255.19,353.79,255.19,346.64z M247.28,158.26c5.05,2.92,11.51,1.2,14.43-3.85c3.89-6.72,11.11-10.89,18.86-10.89
	c7.74,0,14.97,4.17,18.85,10.89c1.96,3.38,5.5,5.28,9.15,5.28c1.79,0,3.61-0.46,5.28-1.42c5.05-2.92,6.77-9.38,3.85-14.43
	c-7.65-13.22-21.88-21.44-37.14-21.44c-15.26,0-29.49,8.21-37.14,21.44C240.5,148.88,242.23,155.34,247.28,158.26z"/>
<g class="st0">
	<g class="st2">
		<g>
			<path class="st3" d="M320.26,149.24h-14.78c-4.08,0-7.39,3.31-7.39,7.39s3.31,7.39,7.39,7.39h14.78c4.08,0,7.39-3.31,7.39-7.39
				S324.34,149.24,320.26,149.24z"/>
			<path class="st3" d="M320.26,178.81h-14.78c-4.08,0-7.39,3.31-7.39,7.39c0,4.08,3.31,7.39,7.39,7.39h14.78
				c4.08,0,7.39-3.31,7.39-7.39C327.66,182.12,324.34,178.81,320.26,178.81z"/>
			<path class="st3" d="M320.26,119.67h-14.78c-4.08,0-7.39,3.31-7.39,7.39c0,4.08,3.31,7.39,7.39,7.39h14.78
				c4.08,0,7.39-3.31,7.39-7.39C327.66,122.99,324.34,119.67,320.26,119.67z"/>
			<path class="st3" d="M320.26,356.22h-14.78c-4.08,0-7.39,3.31-7.39,7.39s3.31,7.39,7.39,7.39h14.78c4.08,0,7.39-3.31,7.39-7.39
				S324.34,356.22,320.26,356.22z"/>
			<path class="st3" d="M157.64,119.67h-44.35c-4.08,0-7.39,3.31-7.39,7.39v103.49c0,4.08,3.31,7.39,7.39,7.39h44.35
				c4.08,0,7.39-3.31,7.39-7.39V127.07C165.03,122.99,161.72,119.67,157.64,119.67z M150.24,223.16h-29.57v-88.71h29.57V223.16z"/>
			<path class="st3" d="M157.64,356.22h-44.35c-4.08,0-7.39,3.31-7.39,7.39s3.31,7.39,7.39,7.39h44.35c4.08,0,7.39-3.31,7.39-7.39
				S161.72,356.22,157.64,356.22z"/>
			<path class="st3" d="M157.64,385.79h-44.35c-4.08,0-7.39,3.31-7.39,7.39c0,4.08,3.31,7.39,7.39,7.39h44.35
				c4.08,0,7.39-3.31,7.39-7.39C165.03,389.1,161.72,385.79,157.64,385.79z"/>
			<path class="st3" d="M320.26,385.79h-14.78c-4.08,0-7.39,3.31-7.39,7.39c0,4.08,3.31,7.39,7.39,7.39h14.78
				c4.08,0,7.39-3.31,7.39-7.39C327.66,389.1,324.34,385.79,320.26,385.79z"/>
			<path class="st3" d="M408.97,385.79H379.4c-4.08,0-7.39,3.31-7.39,7.39c0,4.08,3.31,7.39,7.39,7.39h29.57
				c4.08,0,7.39-3.31,7.39-7.39C416.36,389.1,413.05,385.79,408.97,385.79z"/>
			<path class="st3" d="M253.73,127.07c0-4.08-3.31-7.39-7.39-7.39h-29.57c-4.08,0-7.39,3.31-7.39,7.39v103.49
				c0,4.08,3.31,7.39,7.39,7.39h29.57c4.08,0,7.39-3.31,7.39-7.39V127.07z M238.95,223.16h-14.78v-88.71h14.78V223.16z"/>
			<path class="st3" d="M408.97,356.22H379.4c-4.08,0-7.39,3.31-7.39,7.39s3.31,7.39,7.39,7.39h29.57c4.08,0,7.39-3.31,7.39-7.39
				S413.05,356.22,408.97,356.22z"/>
			<path class="st3" d="M246.34,385.79h-29.57c-4.08,0-7.39,3.31-7.39,7.39c0,4.08,3.31,7.39,7.39,7.39h29.57
				c4.08,0,7.39-3.31,7.39-7.39C253.73,389.1,250.42,385.79,246.34,385.79z"/>
			<path class="st3" d="M379.4,267.52c4.08,0,7.39-3.31,7.39-7.39V186.2c0-4.08-3.31-7.39-7.39-7.39s-7.39,3.31-7.39,7.39v73.92
				C372.01,264.21,375.32,267.52,379.4,267.52z"/>
			<path class="st3" d="M416.36,186.2c0-4.08-3.31-7.39-7.39-7.39c-4.08,0-7.39,3.31-7.39,7.39v73.92c0,4.08,3.31,7.39,7.39,7.39
				c4.08,0,7.39-3.31,7.39-7.39V186.2z"/>
			<path class="st3" d="M423.75,60.54H379.4c-4.08,0-7.39,3.31-7.39,7.39c0,4.08,3.31,7.39,7.39,7.39h44.35
				c4.07,0,7.39,3.32,7.39,7.39v340.04c0,4.07-3.32,7.39-7.39,7.39h-66.53V119.67h44.35c4.08,0,7.39-3.31,7.39-7.39
				c0-4.08-3.31-7.39-7.39-7.39h-44.35V38.36c0-12.43-9.74-22.18-22.18-22.18H290.7c-12.23,0-22.18,9.95-22.18,22.18v391.79H194.6
				V45.75h51.74c4.08,0,7.39-3.31,7.39-7.39s-3.31-7.39-7.39-7.39H194.6v-7.39c0-12.43-9.74-22.18-22.18-22.18H98.5
				c-12.23,0-22.18,9.95-22.18,22.18v66.53H39.36c-4.08,0-7.39,3.31-7.39,7.39c0,4.08,3.31,7.39,7.39,7.39h36.96v325.26H24.58
				c-4.07,0-7.39-3.32-7.39-7.39V67.93c0-4.07,3.32-7.39,7.39-7.39h29.57c4.08,0,7.39-3.31,7.39-7.39c0-4.08-3.31-7.39-7.39-7.39
				H24.58C12.35,45.75,2.4,55.7,2.4,67.93v354.82c0,12.23,9.95,22.18,22.18,22.18h399.18c12.23,0,22.18-9.95,22.18-22.18V82.71
				C445.93,70.49,435.98,60.54,423.75,60.54z M179.81,430.15H91.11V60.54h66.53c4.08,0,7.39-3.31,7.39-7.39
				c0-4.08-3.31-7.39-7.39-7.39H91.11V23.58c0-4.15,3.24-7.39,7.39-7.39h73.92c4.21,0,7.39,3.18,7.39,7.39L179.81,430.15
				L179.81,430.15z M342.44,430.15H283.3V75.32h36.96c4.08,0,7.39-3.31,7.39-7.39c0-4.08-3.31-7.39-7.39-7.39H283.3V38.36
				c0-4.15,3.24-7.39,7.39-7.39h44.35c4.21,0,7.39,3.18,7.39,7.39V430.15z"/>
			<path class="st3" d="M54.15,356.22H39.36c-4.08,0-7.39,3.31-7.39,7.39s3.31,7.39,7.39,7.39h14.78c4.08,0,7.39-3.31,7.39-7.39
				S58.23,356.22,54.15,356.22z"/>
			<path class="st3" d="M54.15,385.79H39.36c-4.08,0-7.39,3.31-7.39,7.39c0,4.08,3.31,7.39,7.39,7.39h14.78
				c4.08,0,7.39-3.31,7.39-7.39C61.54,389.1,58.23,385.79,54.15,385.79z"/>
			<path class="st3" d="M246.34,356.22h-29.57c-4.08,0-7.39,3.31-7.39,7.39s3.31,7.39,7.39,7.39h29.57c4.08,0,7.39-3.31,7.39-7.39
				S250.42,356.22,246.34,356.22z"/>
			<path class="st3" d="M54.15,178.81H39.36c-4.08,0-7.39,3.31-7.39,7.39c0,4.08,3.31,7.39,7.39,7.39h14.78
				c4.08,0,7.39-3.31,7.39-7.39C61.54,182.12,58.23,178.81,54.15,178.81z"/>
			<path class="st3" d="M54.15,208.38H39.36c-4.08,0-7.39,3.31-7.39,7.39c0,4.08,3.31,7.39,7.39,7.39h14.78
				c4.08,0,7.39-3.31,7.39-7.39S58.23,208.38,54.15,208.38z"/>
		</g>
	</g>
</g>
<g class="st0">
	<path class="st1" d="M17.69,48.15h235.37v54.92c0,4.34,3.51,7.85,7.85,7.85h54.92v62.76h15.69v-70.61c0-2.17-0.88-4.13-2.31-5.55
		l-62.74-62.74c-1.43-1.43-3.39-2.31-5.56-2.31H49.07V16.76h298.13v172.6h15.69V8.92c0-4.34-3.51-7.85-7.85-7.85H41.23
		c-4.34,0-7.85,3.51-7.85,7.85v23.54H9.85C5.51,32.45,2,35.96,2,40.3v439.35c0,4.34,3.51,7.85,7.85,7.85H276.6v-15.69H17.69V48.15z
		 M268.75,59.24l35.98,35.98h-35.98V59.24z"/>
	<path class="st1" d="M433.51,236.44h-11.81c-35.03,0-67.98-15.43-90.4-42.33l-1.59-1.91c-2.97-3.59-9.09-3.59-12.06,0l-1.59,1.9
		c-22.43,26.91-55.38,42.34-90.41,42.34h-11.81c-4.34,0-7.85,3.51-7.85,7.85v127.07c0,30.9,16.66,59.61,43.49,74.94l70.3,40.18
		c1.2,0.69,2.55,1.03,3.89,1.03c1.34,0,2.69-0.34,3.89-1.03l70.3-40.18c26.82-15.32,43.49-44.04,43.49-74.94V244.29
		C441.35,239.95,437.85,236.44,433.51,236.44z M425.66,371.35c0,25.28-13.63,48.77-35.58,61.31l-66.41,37.97l-66.41-37.96
		c-21.95-12.55-35.58-36.04-35.58-61.32V252.13h3.97c37.44,0,72.79-15.56,98.02-42.92c25.22,27.37,60.59,42.92,98.02,42.92h3.97
		V371.35z"/>
	<path class="st1" d="M323.67,259.98c-47.58,0-86.3,38.72-86.3,86.3s38.72,86.3,86.3,86.3s86.3-38.72,86.3-86.3
		S371.25,259.98,323.67,259.98z M323.67,416.89c-38.94,0-70.61-31.67-70.61-70.61s31.67-70.61,70.61-70.61s70.61,31.67,70.61,70.61
		S362.61,416.89,323.67,416.89z"/>
	<path class="st1" d="M319.93,370.67l-14.25-14.25l-11.09,11.09l23.54,23.54c1.48,1.49,3.49,2.3,5.55,2.3
		c0.64,0,1.28-0.08,1.92-0.23c2.68-0.68,4.8-2.72,5.6-5.36l23.54-78.46l-15.03-4.51L319.93,370.67z"/>
	<path class="st1" d="M33.38,126.6h203.99v15.69H33.38V126.6z"/>
	<path class="st1" d="M33.38,157.98h203.99v15.69H33.38V157.98z"/>
	<path class="st1" d="M33.38,189.37h203.99v15.69H33.38V189.37z"/>
	<path class="st1" d="M33.38,220.75h156.91v15.69H33.38V220.75z"/>
	<path class="st1" d="M33.38,252.13h156.91v15.69H33.38V252.13z"/>
	<path class="st1" d="M33.38,283.51h156.91v15.69H33.38V283.51z"/>
	<path class="st1" d="M33.38,377.66h156.91v15.69H33.38V377.66z"/>
	<path class="st1" d="M33.38,409.04h156.91v15.69H33.38V409.04z"/>
	<path class="st1" d="M33.38,440.43h156.91v15.69H33.38V440.43z"/>
	<path class="st1" d="M41.23,63.84h15.69v15.69H41.23V63.84z"/>
	<path class="st1" d="M72.61,63.84H88.3v15.69H72.61V63.84z"/>
	<path class="st1" d="M103.99,63.84h15.69v15.69h-15.69V63.84z"/>
	<path class="st1" d="M135.38,63.84h101.99v15.69H135.38V63.84z"/>
</g>
<g class="st0">
	<path class="st1" d="M163.52,259.09c-2.58,0-5.14-1.09-6.94-3.22c-18.75-22.05-29.5-54.09-29.5-87.9v-9.11
		c0-5.03,4.08-9.11,9.11-9.11c5.03,0,9.11,4.08,9.11,9.11v9.11c0,29.55,9.18,57.28,25.16,76.1c3.26,3.84,2.8,9.59-1.04,12.84
		C167.7,258.38,165.6,259.09,163.52,259.09z"/>
	<path class="st1" d="M272.85,259.09c-2.09,0-4.19-0.71-5.89-2.17c-3.84-3.25-4.31-9-1.04-12.84c15.98-18.82,25.16-46.56,25.16-76.1
		v-9.11c0-5.03,4.07-9.11,9.11-9.11c5.04,0,9.11,4.08,9.11,9.11v9.11c0,33.8-10.76,65.85-29.5,87.9
		C277.99,257.99,275.43,259.09,272.85,259.09z"/>
	<path class="st1" d="M345.74,131.53h-18.22c0-60.29-49.04-109.33-109.33-109.33S108.85,71.25,108.85,131.53H90.63
		c0-70.33,57.22-127.55,127.55-127.55C288.52,3.98,345.74,61.2,345.74,131.53z"/>
	<path class="st1" d="M354.85,213.53h-18.22c-5.04,0-9.11-4.08-9.11-9.11v-36.45c0-5.03,4.07-9.11,9.11-9.11
		c5.04,0,9.11,4.08,9.11,9.11v27.33h9.11c5.03,0,9.11-4.09,9.11-9.11v-36.44c0-5.02-4.08-9.11-9.11-9.11h-18.22
		c-5.04,0-9.11-4.08-9.11-9.11c0-5.03,4.07-9.11,9.11-9.11h18.22c15.07,0,27.33,12.26,27.33,27.33v36.44
		C382.18,201.27,369.92,213.53,354.85,213.53z"/>
	<path class="st1" d="M99.74,213.53H81.52c-15.07,0-27.33-12.26-27.33-27.33v-36.44c0-15.07,12.27-27.33,27.33-27.33h18.22
		c5.03,0,9.11,4.08,9.11,9.11v72.89C108.85,209.45,104.77,213.53,99.74,213.53z M81.52,140.64c-5.02,0-9.11,4.09-9.11,9.11v36.44
		c0,5.02,4.09,9.11,9.11,9.11h9.11v-54.67H81.52z"/>
	<path class="st1" d="M245.51,304.64v-18.22c45.22,0,82-36.78,82-82h18.22C345.74,259.68,300.78,304.64,245.51,304.64z"/>
	<path class="st1" d="M227.29,322.86h-18.22c-15.07,0-27.33-12.26-27.33-27.33c0-15.07,12.26-27.33,27.33-27.33h18.22
		c15.07,0,27.33,12.27,27.33,27.33C254.63,310.6,242.36,322.86,227.29,322.86z M209.07,286.42c-5.02,0-9.11,4.08-9.11,9.11
		c0,5.03,4.09,9.11,9.11,9.11h18.22c5.03,0,9.11-4.08,9.11-9.11c0-5.03-4.08-9.11-9.11-9.11H209.07z"/>
	<path class="st1" d="M263.74,131.53h-45.56c-25.12,0-45.55-20.44-45.55-45.55c0-5.03,4.08-9.11,9.11-9.11
		c5.03,0,9.11,4.08,9.11,9.11c0,15.07,12.27,27.33,27.33,27.33h45.56c5.04,0,9.11,4.08,9.11,9.11
		C272.85,127.45,268.78,131.53,263.74,131.53z"/>
	<path class="st1" d="M300.18,167.98c-5.04,0-9.11-4.08-9.11-9.11c0-15.07-12.27-27.33-27.33-27.33c-5.04,0-9.11-4.08-9.11-9.11
		c0-5.03,4.07-9.11,9.11-9.11c25.12,0,45.55,20.44,45.55,45.55C309.29,163.9,305.22,167.98,300.18,167.98z"/>
	<path class="st1" d="M145.29,131.53h-9.11c-5.03,0-9.11-4.08-9.11-9.11c0-5.03,4.08-9.11,9.11-9.11h9.11
		c15.07,0,27.33-12.26,27.33-27.33c0-5.03,4.08-9.11,9.11-9.11c5.03,0,9.11,4.08,9.11,9.11
		C190.85,111.09,170.41,131.53,145.29,131.53z"/>
	<path class="st1" d="M181.74,413.98c-2.33,0-4.66-0.89-6.44-2.67l-63.78-63.78c-1.93-1.93-2.89-4.63-2.62-7.34
		c0.26-2.71,1.74-5.17,4.01-6.68l27.33-18.22c2.99-2,6.85-2.04,9.88-0.14L223,360.69c4.27,2.66,5.57,8.28,2.9,12.56
		c-2.67,4.27-8.3,5.57-12.56,2.89l-67.9-42.43l-13.19,8.79l55.91,55.92c3.56,3.56,3.56,9.32,0,12.88
		C186.4,413.08,184.07,413.98,181.74,413.98z"/>
	<path class="st1" d="M181.74,413.98c-2.33,0-4.66-0.89-6.44-2.67c-3.56-3.56-3.56-9.32,0-12.88l18.22-18.22
		c3.56-3.56,9.32-3.56,12.89,0c3.56,3.56,3.56,9.32,0,12.89l-18.22,18.22C186.4,413.08,184.07,413.98,181.74,413.98z"/>
	<path class="st1" d="M254.63,413.98c-2.33,0-4.66-0.89-6.44-2.67l-36.44-36.45c-1.96-1.97-2.93-4.72-2.62-7.47
		c0.32-2.76,1.87-5.22,4.23-6.69l72.89-45.56c3.03-1.9,6.9-1.86,9.89,0.15l27.33,18.22c2.27,1.51,3.74,3.97,4.01,6.68
		c0.26,2.71-0.69,5.41-2.63,7.34l-63.78,63.78C259.29,413.08,256.96,413.98,254.63,413.98z M232.72,370.08l21.9,21.9l49.48-49.48
		l-13.19-8.79L232.72,370.08z"/>
	<path class="st1" d="M145.29,331.98c-0.95,0-1.92-0.15-2.88-0.47c-4.77-1.58-7.35-6.74-5.76-11.52l9.11-27.33
		c1.58-4.76,6.74-7.37,11.52-5.76c4.77,1.58,7.35,6.74,5.76,11.52l-9.11,27.33C152.66,329.56,149.11,331.98,145.29,331.98z"/>
	<path class="st1" d="M17.25,435.14L0,429.25c0-0.01,6.92-20.27,9.03-27.09c8.09-26.15,24.42-42.51,51.38-51.5l54.67-18.22
		c4.8-1.61,9.93,0.98,11.53,5.76c1.59,4.77-0.98,9.94-5.76,11.52l-54.67,18.22c-21.19,7.06-33.45,19.28-39.74,39.62
		C24.29,414.5,17.25,435.14,17.25,435.14z"/>
	<path class="st1" d="M419.12,435.14c0,0-7.03-20.64-9.19-27.57c-6.29-20.34-18.54-32.55-39.73-39.62l-54.67-18.22
		c-4.76-1.58-7.35-6.74-5.76-11.52c1.58-4.76,6.71-7.37,11.52-5.76l54.67,18.22c26.97,8.98,43.29,25.34,51.38,51.49
		c2.12,6.81,9.03,27.08,9.03,27.09L419.12,435.14z"/>
	<path class="st1" d="M209.07,423.09h18.22v18.22h-18.22V423.09z"/>
</g>
<g>
	<g>
		<g>
			<path class="st3" d="M376.96,406.6l-17.32-51.97c-6.05-18.15-21.5-31.54-40.32-34.97l-50.01-9.1v-3.88
				c8.7-5.05,16.27-11.81,22.31-19.81h15.11c12.38,0,22.45-10.07,22.45-22.45v-89.79c0-53.64-43.64-97.27-97.27-97.27
				s-97.27,43.64-97.27,97.27v52.38c0,14.43,10.26,26.5,23.86,29.31c4.2,21.51,17.64,39.7,36,50.36v3.88l-50.01,9.1
				c-18.82,3.43-34.27,16.82-40.32,34.97l-2.99,8.99l-25.49-25.49c-2.92-2.92-2.92-7.67,0-10.59l29.56-29.55l-55.48-55.48
				l-33.4,33.4c-9.89,9.89-15.34,23.05-15.34,37.04c0,13.99,5.45,27.14,15.34,37.03l101.13,101.13
				c9.89,9.89,23.05,15.35,37.04,15.35c13.99,0,27.14-5.45,36.8-15.12l36.45-33.4L216.4,406.6H376.96z M314.2,264.43
				c0,4.13-3.36,7.48-7.48,7.48h-6.29c2.17-4.95,3.82-10.16,4.88-15.59c3.2-0.67,6.15-1.94,8.9-3.54V264.43z M306.72,239.9v-25.77
				c4.45,2.6,7.48,7.37,7.48,12.89S311.17,237.3,306.72,239.9z M157.07,239.9c-4.45-2.6-7.48-7.37-7.48-12.89s3.03-10.29,7.48-12.89
				V239.9z M157.07,189.6v8.55c-2.66,0.7-5.16,1.74-7.48,3.1v-26.61c0-45.38,36.93-82.31,82.31-82.31s82.31,36.93,82.31,82.31v26.61
				c-2.32-1.35-4.82-2.41-7.48-3.1v-8.55h-7.48c-22.13,0-42.93-8.62-58.58-24.27l-8.76-8.76l-8.76,8.76
				c-15.65,15.65-36.46,24.27-58.58,24.27H157.07z M172.03,241.98v-37.7c22.47-1.69,43.42-10.96,59.86-26.59
				c16.44,15.63,37.39,24.91,59.86,26.59v37.7c0,10.91-2.98,21.12-8.1,29.93h-51.77v14.97h39.46
				c-10.55,9.29-24.34,14.97-39.46,14.97C198.89,301.84,172.03,274.98,172.03,241.98z M254.34,313.36v0.35l-22.45,22.45
				l-22.45-22.45v-0.35c7.09,2.23,14.63,3.45,22.45,3.45S247.25,315.58,254.34,313.36z M118.34,359.35
				c4.32-12.96,15.35-22.53,28.8-24.98l52.3-9.5l32.45,32.45l32.44-32.44l52.3,9.5c13.45,2.45,24.48,12.02,28.8,24.98l10.77,32.27
				H201.43l-29.15-29.15l-32.39,29.29c-2.82,2.84-7.75,2.84-10.58,0l-16.34-16.34L118.34,359.35z M49.74,263.67l34.32,34.32
				l-8.13,8.13L41.62,271.8L49.74,263.67z M180.95,440.55c-7.06,7.05-16.46,10.95-26.45,10.95c-9.99,0-19.39-3.9-26.46-10.96
				L26.91,339.41c-7.06-7.06-10.95-16.46-10.95-26.45c0-10,3.89-19.4,10.95-26.46l4.12-4.12l34.32,34.32l-0.27,0.27
				c-8.75,8.75-8.75,22.99,0,31.75l53.66,53.66c4.24,4.24,9.88,6.58,15.88,6.58c6,0,11.64-2.33,15.6-6.32l0.56-0.5l34.47,34.47
				L180.95,440.55z M196.29,426.48l-34.4-34.4l9.88-8.93l34.34,34.34L196.29,426.48z"/>
		</g>
	</g>
	<g>
		<g>
			<path class="st3" d="M441.41,2.53H336.65c-12.38,0-22.45,10.07-22.45,22.45v59.86c0,12.38,10.07,22.45,22.45,22.45h19.99
				l-7.74,45.13l72.21-45.13h20.3c12.38,0,22.45-10.07,22.45-22.45V24.98C463.86,12.6,453.78,2.53,441.41,2.53z M448.89,84.84
				c0,4.12-3.36,7.48-7.48,7.48h-24.6l-47.52,29.7l5.1-29.7h-37.74c-4.12,0-7.48-3.36-7.48-7.48V24.98c0-4.12,3.36-7.48,7.48-7.48
				h104.76c4.12,0,7.48,3.36,7.48,7.48V84.84z"/>
		</g>
	</g>
	<g>
		<g>
			<rect x="344.13" y="32.46" class="st3" width="89.79" height="14.97"/>
		</g>
	</g>
	<g>
		<g>
			<rect x="344.13" y="62.39" class="st3" width="59.86" height="14.97"/>
		</g>
	</g>
	<g>
		<g>
			<rect x="418.96" y="62.39" class="st3" width="14.97" height="14.97"/>
		</g>
	</g>
	<g>
		<g>
			<path class="st3" d="M231.89,24.98c-97.77,0-181.99,67.63-203.88,161.96L13.83,163.3L1,171l26.3,43.83l43.83-26.3l-7.7-12.83
				l-20.28,12.17c21.21-86.3,98.81-147.92,188.74-147.92c19.66,0,39.05,2.92,57.65,8.68l4.43-14.29
				C273.94,28.12,253.05,24.98,231.89,24.98z"/>
		</g>
	</g>
	<g>
		<g>
			<path class="st3" d="M460.22,168.21l-43.83-26.3l-26.29,43.83l12.83,7.7l13.09-21.83c6.89,20.17,10.42,41.26,10.42,62.88
				c0,44.5-15.41,88-43.39,122.49l11.62,9.43c30.14-37.14,46.74-84,46.74-131.92c0-22.89-3.69-45.24-10.88-66.64l21.99,13.19
				L460.22,168.21z"/>
		</g>
	</g>
</g>
</svg>
