<?xml version="1.0" encoding="utf-8"?>
<!-- Generator: Adobe Illustrator 23.0.1, SVG Export Plug-In . SVG Version: 6.00 Build 0)  -->
<svg version="1.1" id="Capa_1" xmlns="http://www.w3.org/2000/svg" xmlns:xlink="http://www.w3.org/1999/xlink" x="0px" y="0px"
	 viewBox="0 0 496.01 496.01" style="enable-background:new 0 0 496.01 496.01;" xml:space="preserve">
<style type="text/css">
	.st0{display:none;}
	.st1{display:inline;}
	.st2{fill:#EFBB5E;}
	.st3{display:inline;fill:#5E5D5D;}
	.st4{display:inline;fill:#F0BC5E;}
	.st5{fill:#FFFFFF;}
	.st6{display:inline;fill:#FFB954;}
	.st7{fill:#5E5D5D;}
	.st8{fill:#F0BC5E;}
</style>
<g class="st0">
	<g class="st1">
		<g>
			<path class="st2" d="M328.01,94.47l-19.76-7.41l8.74-19.21l-24.82-24.82l-19.21,8.74l-7.41-19.76h-35.1l-7.41,19.76l-19.21-8.74
				l-24.82,24.82l8.74,19.21L168,94.47v35.1l19.76,7.41l-8.74,19.21l24.82,24.82l19.21-8.74l7.41,19.75h35.1l7.41-19.76l19.21,8.74
				l24.82-24.82l-8.74-19.21l19.75-7.41V94.47z M248.01,136.01c-13.26,0-24-10.74-24-24s10.74-24,24-24c13.26,0,24,10.74,24,24
				S261.26,136.01,248.01,136.01z"/>
			<rect x="320.01" y="304.01" class="st2" width="104" height="40"/>
			<rect x="72" y="304.01" class="st2" width="104" height="40"/>
		</g>
	</g>
	<path class="st3" d="M456.01,64.01H349.06c-6.32-13.3-15.16-25.42-26.35-35.45c-24.03-21.53-55.09-31.4-87.4-27.86
		c-38.87,4.29-72.11,29.17-88.45,63.3H40.01c-22.06,0-40,17.94-40,40v304c0,22.06,17.94,40,40,40h96v32h-32v16h288v-16h-32v-32h96
		c22.06,0,40-17.94,40-40v-304C496.01,81.95,478.06,64.01,456.01,64.01z M456.01,80.01c13.23,0,24,10.77,24,24v264h-16v-256
		c0-8.82-7.18-16-16-16h-89.3c-0.79-5.43-1.94-10.78-3.5-16C355.21,80.01,456.01,80.01,456.01,80.01z M168.01,208.01h-16v16h16v16
		h-16v16h16v8c0,13.23,10.77,24,24,24h48v48h-160v-192h60.8c5.13,17.18,14.24,33.06,27.2,46.27V208.01z M328.01,264.01v-8h16v-16
		h-16v-16h16v-16h-16v-17.73c12.96-13.22,22.25-29.03,27.37-46.27h60.63v192h-160v-48h48C317.24,288.01,328.01,277.24,328.01,264.01
		z M136.04,112.01c0,5.41,0.5,10.73,1.26,16H64v224h368v-224h-73.26c0.74-5.26,1.26-10.58,1.26-16h88v256h-400v-256
		C48.01,112.01,136.04,112.01,136.04,112.01z M152.69,100.36c5.15-43.7,40.63-78.93,84.37-83.74c3.71-0.41,7.41-0.62,11.06-0.62
		c23.7,0,46.06,8.5,63.9,24.48c20.32,18.2,31.98,44.27,31.98,71.53c0,26.3-10.5,50.86-29.54,69.17l-2.46,2.36v24.47h-16v16h16v16
		h-96v16h96v8c0,4.42-3.59,8-8,8h-112c-4.41,0-8-3.58-8-8v-8h16v-16h-16v-16h96v-16h-96v-24.47l-2.46-2.36
		C159.65,160.13,149.13,130.67,152.69,100.36z M40.01,80.01h100.62c-1.55,5.18-2.66,10.54-3.42,16h-89.2c-8.82,0-16,7.18-16,16v256
		h-16v-264C16,90.78,26.77,80.01,40.01,80.01z M344.01,480.01h-192v-32h192V480.01z M456.01,432.01h-416c-13.23,0-24-10.77-24-24
		v-24h464v24C480.01,421.24,469.24,432.01,456.01,432.01z"/>
	<rect x="216.01" y="400.01" class="st3" width="64" height="16"/>
	<path class="st3" d="M248.01,144.01c17.65,0,32-14.35,32-32s-14.35-32-32-32s-32,14.35-32,32S230.36,144.01,248.01,144.01z
		 M248.01,96.01c8.82,0,16,7.18,16,16s-7.18,16-16,16s-16-7.18-16-16S239.18,96.01,248.01,96.01z"/>
	<rect x="320.01" y="304.01" class="st3" width="16" height="16"/>
	<rect x="352.01" y="304.01" class="st3" width="16" height="16"/>
	<rect x="384.01" y="304.01" class="st3" width="16" height="16"/>
	<rect x="96" y="304.01" class="st3" width="16" height="16"/>
	<rect x="128.01" y="304.01" class="st3" width="16" height="16"/>
	<rect x="160.01" y="304.01" class="st3" width="16" height="16"/>
</g>
<g class="st0">
	<path class="st4" d="M208.01,42v64h-176v192h64v-88h256V42H208.01z"/>
	<path class="st4" d="M256.01,466h-224V322h224V466z"/>
	<path class="st3" d="M456.01,226h-72V2H68.69L0.01,70.69V498h384V338h40c13.23,0,24-10.77,24-24c0-2.82-0.57-5.49-1.47-8h9.47
		c22.05,0,40-17.95,40-40S478.06,226,456.01,226z M208.01,290v-48h192v48H208.01z M192.01,287.25l-62.04-18.61
		c-1.17-0.35-1.96-1.41-1.96-2.63s0.79-2.28,1.96-2.63l62.04-18.61V287.25z M64.01,29.31V66H27.32L64.01,29.31z M432.01,314
		c0,4.41-3.59,8-8,8h-128v16h72v144h-352V82h64V18h288v208h-168l-74.63,22.04c-7.99,2.4-13.37,9.62-13.37,17.96
		s5.38,15.56,13.37,17.96L198.84,306h225.17C428.42,306,432.01,309.59,432.01,314z M456.01,290h-40v-48h40c13.23,0,24,10.77,24,24
		S469.24,290,456.01,290z"/>
	<path class="st3" d="M208.01,34h144v16h-144V34z"/>
	<path class="st3" d="M208.01,66h144v16h-144V66z"/>
	<path class="st3" d="M32.01,290h64v16h-64V290z"/>
	<path class="st3" d="M32.01,258h64v16h-64V258z"/>
	<path class="st3" d="M32.01,98h320v16h-320V98z"/>
	<path class="st3" d="M32.01,130h320v16h-320V130z"/>
	<path class="st3" d="M32.01,162h320v16h-320V162z"/>
	<path class="st3" d="M32.01,194h288v16h-288V194z"/>
	<path class="st3" d="M336.01,194h16v16h-16V194z"/>
	<path class="st3" d="M32.01,226h64v16h-64V226z"/>
</g>
<g class="st0">
	<path class="st4" d="M30.94,422.53V180.35c0-20.02,16.23-36.25,36.25-36.25h41.58h282.79h36.26c20.02,0,36.25,16.23,36.25,36.25
		v242.18"/>
	<g class="st1">
		<path class="st5" d="M334.52,144.1H197.5c-14.03,0-25.41,11.38-25.41,25.41l0,0v174.03l0,0c0-14.03,11.38-25.41,25.41-25.41
			h137.01V144.1z"/>
		<path class="st5" d="M9.67,144.1h137.01c14.03,0,25.41,11.38,25.41,25.41l0,0v174.03l0,0c0-14.03-11.38-25.41-25.41-25.41H9.67
			V144.1z"/>
	</g>
	<rect x="9.67" y="318.13" class="st6" width="324.85" height="37.72"/>
	<g class="st1">
		<path class="st5" d="M423.35,181.89v50.39c0,45.86-37.18,83.04-83.04,83.04l0,0c-45.86,0-83.04-37.18-83.04-83.04v-50.39H423.35z"
			/>
		<path class="st5" d="M245.03,232.55h12.26v-45.1h-12.26c-12.45,0-22.55,10.1-22.55,22.55l0,0
			C222.48,222.46,232.58,232.55,245.03,232.55z"/>
		<path class="st5" d="M435.61,187.45h-12.26v45.1h12.26c12.45,0,22.55-10.1,22.55-22.55l0,0
			C458.16,197.55,448.06,187.45,435.61,187.45z"/>
	</g>
	<polygon class="st4" points="423.35,112.61 423.35,176.44 340.32,212.98 257.28,176.44 257.28,112.61 	"/>
	<path class="st4" d="M485.34,80.66l-145.02,69.99L195.3,80.66l145.02-69.99L485.34,80.66z"/>
	<path class="st3" d="M269.1,444.77h-42.7c-5.34,0-9.67,4.33-9.67,9.67c0,5.34,4.33,9.67,9.67,9.67h42.7c5.34,0,9.67-4.33,9.67-9.67
		C278.77,449.1,274.44,444.77,269.1,444.77z"/>
	<path class="st3" d="M347.15,87.49c1.8-1.8,2.83-4.29,2.83-6.84s-1.03-5.03-2.83-6.84c-1.8-1.8-4.29-2.83-6.83-2.83
		s-5.04,1.03-6.84,2.83c-1.8,1.8-2.83,4.29-2.83,6.84c0,2.55,1.03,5.04,2.83,6.84c1.8,1.81,4.29,2.83,6.84,2.83
		S345.36,89.3,347.15,87.49z"/>
	<path class="st3" d="M489.69,72.03c-0.05-0.03-0.09-0.05-0.14-0.08L344.52,1.96c-2.65-1.28-5.75-1.28-8.4,0L191.1,71.95
		c-3.34,1.61-5.47,5-5.47,8.71s2.12,7.09,5.47,8.71l56.52,27.28v59.8c0,0.45,0.04,0.9,0.1,1.34h-2.69
		c-17.76,0-32.22,14.45-32.22,32.22c0,17.76,14.45,32.22,32.22,32.22h3.12c2.94,27.41,17.87,51.27,39.42,66.24h-90.07
		c-5.66,0-11.01,1.35-15.74,3.73V169.51c0-8.68,7.06-15.74,15.74-15.74h24.97c5.34,0,9.67-4.33,9.67-9.67
		c0-5.34-4.33-9.67-9.67-9.67h-24.97c-9.99,0-19.02,4.21-25.41,10.93c-6.4-6.73-15.42-10.93-25.41-10.93H9.67
		c-5.34,0-9.67,4.33-9.67,9.67v174.03v37.72c0,5.34,4.33,9.67,9.67,9.67h11.6v47.35H9.67c-5.34,0-9.67,4.33-9.67,9.67v17.4
		c0,30.92,25.16,56.08,56.08,56.08h382.86c30.92,0,56.08-25.16,56.08-56.08v-17.4c0-5.34-4.33-9.67-9.67-9.67h-11.6V270.74
		c0-5.34-4.33-9.67-9.67-9.67c-5.34,0-9.67,4.33-9.67,9.67v142.12H40.6v-47.35h293.92c5.34,0,9.67-4.33,9.67-9.67v-30.96
		c46-1.9,83.46-37.47,88.3-82.67h3.12c17.76,0,32.22-14.45,32.22-32.22c0-17.77-14.45-32.22-32.22-32.22h-2.69
		c0.06-0.44,0.1-0.89,0.1-1.34v-59.8l42.65-20.58v44.15c0,5.34,4.33,9.67,9.67,9.67c5.34,0,9.67-4.33,9.67-9.67V80.66
		C495.01,76.89,492.84,73.62,489.69,72.03z M475.67,439.93c0,20.26-16.48,36.74-36.74,36.74H56.08c-20.26,0-36.74-16.48-36.74-36.74
		v-7.73h456.34V439.93z M340.32,21.4l102.75,49.59h-75.55c-5.34,0-9.67,4.33-9.67,9.67c0,5.34,4.33,9.67,9.67,9.67h75.55
		l-102.75,49.59L217.54,80.66L340.32,21.4z M232.15,210c0-7.1,5.78-12.88,12.88-12.88h2.59v25.76h-2.59
		C237.93,222.89,232.15,217.11,232.15,210z M19.34,153.77h127.35c8.68,0,15.74,7.06,15.74,15.74V312.2
		c-4.74-2.39-10.09-3.73-15.74-3.73H19.34V153.77z M19.34,327.8h127.35c8.68,0,15.74,7.06,15.74,15.74c0,0.92,0.14,1.8,0.37,2.64
		H19.34V327.8z M181.39,346.18c0.24-0.84,0.37-1.72,0.37-2.64c0-8.68,7.06-15.74,15.74-15.74h127.35v18.38L181.39,346.18
		L181.39,346.18z M340.32,305.64c-40.45,0-73.37-32.91-73.37-73.37v-41.01l69.47,30.56c1.24,0.55,2.57,0.82,3.89,0.82
		s2.65-0.27,3.89-0.82l69.47-30.56v41.01C413.69,272.73,380.77,305.64,340.32,305.64z M448.49,210c0,7.1-5.78,12.88-12.88,12.88
		h-2.59v-25.76h2.59C442.71,197.12,448.49,202.9,448.49,210z M413.69,170.14l-73.37,32.28l-73.37-32.28v-44.16l69.16,33.38
		c1.33,0.64,2.77,0.96,4.2,0.96s2.88-0.32,4.2-0.96l69.16-33.38L413.69,170.14L413.69,170.14z"/>
	<path class="st3" d="M485.34,173.66c-2.54,0-5.04,1.03-6.84,2.83c-1.8,1.8-2.83,4.29-2.83,6.84c0,2.54,1.03,5.04,2.83,6.84
		c1.8,1.8,4.29,2.83,6.84,2.83s5.04-1.03,6.83-2.83c1.8-1.8,2.83-4.29,2.83-6.84c0-2.54-1.03-5.04-2.83-6.84
		C490.38,174.7,487.88,173.66,485.34,173.66z"/>
	<path class="st3" d="M122.6,244.64c-2.54,0-5.04,1.03-6.83,2.83c-1.81,1.81-2.83,4.29-2.83,6.84s1.03,5.04,2.83,6.83
		c1.8,1.81,4.28,2.83,6.83,2.83c2.54,0,5.04-1.03,6.84-2.83c1.8-1.8,2.83-4.28,2.83-6.83c0-2.54-1.03-5.04-2.83-6.84
		C127.63,245.67,125.14,244.64,122.6,244.64z"/>
	<path class="st3" d="M86.05,244.66H55.11c-5.34,0-9.67,4.33-9.67,9.67c0,5.34,4.33,9.67,9.67,9.67h30.94
		c5.34,0,9.67-4.33,9.67-9.67C95.71,248.98,91.39,244.66,86.05,244.66z"/>
	<path class="st3" d="M55.11,217.58h67.49c5.34,0,9.67-4.33,9.67-9.67c0-5.34-4.33-9.67-9.67-9.67H55.11
		c-5.34,0-9.67,4.33-9.67,9.67C45.44,213.25,49.77,217.58,55.11,217.58z"/>
</g>
<path class="st7" d="M266.12,242h-56V50h-80v16h64v176h-64v16h64v176h-64v16h80V258h56V242z"/>
<path class="st8" d="M498.12,250c0,66.27-53.73,120-120,120s-120-53.73-120-120s53.73-120,120-120S498.12,183.73,498.12,250z"/>
<path class="st7" d="M378.12,290c-22.05,0-40-17.95-40-40h16c0,13.23,10.77,24,24,24s24-10.77,24-24h16
	C418.12,272.05,400.17,290,378.12,290z"/>
<path class="st7" d="M418.12,86.95V2l-40,30l-40-30v84.95l32,16v127.74l-18.34-18.34l-11.31,11.31l37.66,37.66l37.66-37.66
	l-11.31-11.31l-18.34,18.34V102.95L418.12,86.95z M402.12,77.05l-16,8V46l16-12V77.05z M354.12,77.05V34l16,12v39.05L354.12,77.05z"
	/>
<path class="st7" d="M378.12,338c-48.52,0-88-39.48-88-88c0-38.84,24.91-72.63,62-84.09l4.72,15.29
	c-30.34,9.38-50.72,37.02-50.72,68.8c0,39.7,32.3,72,72,72s72-32.3,72-72c0-31.79-20.38-59.43-50.72-68.8l4.72-15.29
	c37.09,11.46,62,45.25,62,84.09C466.12,298.52,426.64,338,378.12,338z"/>
<path class="st8" d="M130.12,306h-128V194h128V306z"/>
<path class="st7" d="M34.12,226h64v16h-64V226z"/>
<path class="st7" d="M74.12,258h16v16h-16V258z"/>
<path class="st7" d="M42.12,258h16v16h-16V258z"/>
<path class="st8" d="M130.12,114h-128V2h128V114z"/>
<path class="st7" d="M34.12,34h64v16h-64V34z"/>
<path class="st7" d="M74.12,66h16v16h-16V66z"/>
<path class="st7" d="M42.12,66h16v16h-16V66z"/>
<path class="st8" d="M130.12,498h-128V386h128V498z"/>
<path class="st7" d="M34.12,418h64v16h-64V418z"/>
<path class="st7" d="M74.12,450h16v16h-16V450z"/>
<path class="st7" d="M42.12,450h16v16h-16V450z"/>
</svg>
