<?xml version="1.0" encoding="utf-8"?>
<!-- Generator: Adobe Illustrator 23.0.1, SVG Export Plug-In . SVG Version: 6.00 Build 0)  -->
<svg version="1.1" id="Layer_1" xmlns="http://www.w3.org/2000/svg" xmlns:xlink="http://www.w3.org/1999/xlink" x="0px" y="0px"
	 viewBox="0 0 496 496" style="enable-background:new 0 0 496 496;" xml:space="preserve">
<style type="text/css">
	.st0{fill:#F0BC5E;}
	.st1{fill:#5E5D5D;}
</style>
<g>
	<path class="st0" d="M336,312.98h96v64h-96V312.98z"/>
	<path class="st0" d="M456,240.98v184H168v-176l-40-3.05v219.05h144.81c3.72,18.23,19.87,32,39.19,32s35.48-13.77,39.19-32H496v-224
		H456z"/>
	<path class="st0" d="M288,400.98h-96v-64h96V400.98z"/>
	<path class="st0" d="M288,312.98h-96v-32h96V312.98z"/>
</g>
<path class="st1" d="M398.53,192.98c-2.41-6.77-7.75-12.11-14.53-14.53v-55.98l-18.63-3.88l6.65-3.02
	c7.27-3.3,11.98-10.6,11.98-18.59s-4.7-15.29-11.97-18.59L210.59,5c-11.77-5.34-25.43-5.34-37.19,0L11.98,78.39
	C4.7,81.69,0,88.98,0,96.98s4.7,15.29,11.97,18.59L48,131.95v97.56l3.88,2.33c1.51,0.9,33.89,19.75,108.12,24.19v176.95h304v-240
	H398.53z M363.19,221.2c3.71,2.36,8.09,3.77,12.81,3.77s9.1-1.41,12.81-3.77L400,265.96v7.02h-48v-7.02L363.19,221.2z M376,192.98
	c4.41,0,8,3.59,8,8c0,4.41-3.59,8-8,8s-8-3.59-8-8C368,196.57,371.59,192.98,376,192.98z M16,96.98c0-1.73,1.02-3.31,2.59-4.02
	l161.44-73.38c3.79-1.73,7.81-2.6,11.97-2.6s8.18,0.88,11.97,2.59l161.45,73.38c1.57,0.71,2.59,2.3,2.59,4.02
	c0,1.73-1.02,3.31-2.59,4.03l-26.54,12.06L185.63,81.14l-3.27,15.66l131.84,27.46l-110.24,50.11c-7.56,3.45-16.38,3.44-23.94,0
	L18.59,101C17.02,100.29,16,98.71,16,96.98z M64,139.22l109.41,49.73c5.88,2.67,12.13,4.02,18.59,4.02s12.71-1.35,18.59-4.02
	L320,139.22v80.84c-12.01,5.54-52.18,20.92-128,20.92c-75.86,0-116.03-15.39-128-20.92V139.22z M176,256.73
	c5.17,0.15,10.47,0.25,16,0.25c53.27,0,89.64-7.25,112-13.97v173.97H176V256.73z M448,416.98H320v-179.5
	c7.64-3.05,11.62-5.34,12.12-5.64l3.88-2.33v-97.56l4.72-2.14l27.28,5.68v42.97c-8.79,3.14-15.17,11.2-15.83,20.9l-15.92,63.7
	L336,288.98h80v-24l-13.79-56H448V416.98z"/>
<path class="st1" d="M192,304.98h96v16h-96V304.98z"/>
<path class="st1" d="M192,272.98h96v16h-96V272.98z"/>
<path class="st1" d="M336,304.98h96v16h-96V304.98z"/>
<path class="st1" d="M336,336.98h96v16h-96V336.98z"/>
<path class="st1" d="M336,368.98h96v16h-96V368.98z"/>
<path class="st1" d="M85.12,80.3l85.57-38.93l6.63,14.57L91.75,94.86L85.12,80.3z"/>
</svg>
