<?xml version="1.0" encoding="utf-8"?>
<!-- Generator: Adobe Illustrator 23.0.1, SVG Export Plug-In . SVG Version: 6.00 Build 0)  -->
<svg version="1.1" id="Layer_1" xmlns="http://www.w3.org/2000/svg" xmlns:xlink="http://www.w3.org/1999/xlink" x="0px" y="0px"
	 viewBox="0 0 512 512" style="enable-background:new 0 0 512 512;" xml:space="preserve">
<style type="text/css">
	.st0{display:none;}
	.st1{display:inline;fill:#444444;}
	.st2{fill:#444444;}
</style>
<g class="st0">
	<path class="st1" d="M136.27,88.17h16.03v15.03h-16.03V88.17z"/>
	<path class="st1" d="M168.33,88.17h16.03v15.03h-16.03V88.17z"/>
	<path class="st1" d="M200.39,88.17h16.03v15.03h-16.03V88.17z"/>
	<path class="st1" d="M427.94,335.66h19.93v-47.09H240.47v47.09h20.93l33.07,33.06h-87.06v-33.06h17.03v-15.03h-17.03v-33.06h17.03
		v-15.03h-17.03v-33.06h33.06v32.06h15.03v-32.06h33.06v32.06h15.03v-95.19H48.09v207.41h261.4l11.13,11.13v9.8l-11.13,12.13H15.03
		V143.28h321.62v120.23h15.03V48.09h-48.09V15.03c0-8.57-6.46-15.03-15.03-15.03h-24.05c-8.56,0-16.03,6.46-16.03,15.03v33.06
		H120.23v15.03h128.25v40.08h55.11V63.13h33.06v65.13H15.03V63.13h33.06v40.08h55.11V15.03C103.2,6.46,96.73,0,88.17,0H64.13
		c-8.56,0-16.03,6.46-16.03,15.03v33.06H0v383.75h294.47l-33.07,33.06h-20.93V512h207.41v-47.09h-19.93l-60.22-60.22v-9.8
		L427.94,335.66z M192.38,368.72h-33.06v-33.06h33.06V368.72z M144.28,224.44h-33.06v-33.06h33.06V224.44z M159.31,191.38h33.06
		v33.06h-33.06V191.38z M144.28,239.47v33.06h-33.06v-33.06H144.28z M96.19,272.53H63.13v-33.06h33.06V272.53z M96.19,287.56v33.06
		H63.13v-33.06H96.19z M111.22,287.56h33.06v33.06h-33.06V287.56z M144.28,335.66v33.06h-33.06v-33.06H144.28z M192.38,320.63
		h-33.06v-33.06h33.06V320.63z M192.38,272.53h-33.06v-33.06h33.06V272.53z M207.41,224.44v-33.06h33.06v33.06H207.41z
		 M288.56,224.44H255.5v-33.06h33.06V224.44z M96.19,191.38v33.06H63.13v-33.06H96.19z M63.13,335.66h33.06v33.06H63.13V335.66z
		 M288.56,88.17h-25.05V15.03c0-0.28,0.73,0,1,0h24.05c0.28,0,0-0.28,0,0V88.17z M63.13,15.03c0-0.28,0.73,0,1,0h24.05
		c0.28,0,0-0.28,0,0v73.14H63.13V15.03z M255.5,303.59h177.34v17.03H255.5V303.59z M432.84,496.97H255.5v-17.03h177.34V496.97z
		 M406.69,464.91H282.66l53-54v-22.26l-53-53h124.03l-54,53v22.26L406.69,464.91z"/>
</g>
<g transform="translate(0 -1)">
	<g>
		<g>
			<path class="st2" d="M449.56,128.8c-8.55-29.07-26.3-54.58-50.57-72.73C351.27,18.64,306.66,3.12,254.47,5.79
				c-27.52,1.9-54.86,5.81-81.82,11.69c-38.16,7.68-65.87,21.1-84.74,41.01c-14.96,15.93-26.51,34.75-33.93,55.3
				c-3.14,9.01-5.69,18.21-7.65,27.54l-0.71,3.06c-1.78,6.58-4.18,12.97-7.17,19.09c-1.76,3.92-3.51,7.85-5.01,11.84
				c-1.95,4.47-2.74,9.37-2.28,14.24c1.72,7.56,6.1,14.25,12.34,18.84c4.15,3.8,6.87,6.47,6.9,8.9c-0.33,1.26-0.83,2.48-1.48,3.61
				c-10.13,21.35-22.54,41.54-37.02,60.22C5.83,288.55-0.54,297.2,0.75,306c1.84,6.67,6.25,12.34,12.26,15.77
				c2.8,1.94,5.75,3.66,8.82,5.12c3.65,1.86,9.76,4.98,10.18,7.2c0.56,2.86,0.23,5.81-0.93,8.48c-1.26,2.65-2.56,4.94-3.68,6.92
				c-3.11,5.49-8.31,14.69-0.46,21.26c1.83,1.61,4.95,4.07,7.81,6.25c-2.12,3.72-3.07,7.98-2.73,12.25
				c0.46,3.31,2.26,6.28,4.98,8.22c1.89,1.34,3.92,2.51,5.92,3.66c4.97,2.83,6.91,4.16,7.58,6.79c0.44,3.44,0.13,6.94-0.92,10.26
				c-0.49,2.22-0.97,4.44-1.26,6.65c-0.85,7.69,0.12,15.48,2.83,22.73c4.39,16.06,20.58,25.88,36.85,22.36
				c24.15-5.82,47.97-12.95,71.36-21.34c19.01,11.23,31.02,45.22,34.15,57.96c0.93,3.78,4.32,6.44,8.22,6.44h213.85
				c2.68,0,5.2-1.27,6.8-3.43c1.6-2.16,2.07-4.94,1.29-7.5c-2.26-5.96-5.48-11.51-9.52-16.44c-2.29-2.92-4.33-6.04-6.1-9.31
				c-3.81-7.8-7.01-15.89-9.56-24.19c-4.84-16.33-8.17-33.08-9.97-50.02c-2.99-25.29,0.83-50.93,11.06-74.25
				c6.26-12.91,13.96-25.07,22.96-36.24c5.11-6.88,10.39-13.99,15.15-21.49c13.35-20.74,20.53-44.85,20.7-69.52
				C458.91,176.38,455.93,152.19,449.56,128.8z M441.49,200.38c-0.14,21.54-6.41,42.6-18.08,60.71
				c-4.42,6.96-9.51,13.82-14.43,20.45c-9.77,12.2-18.12,25.47-24.89,39.56c-11.44,26.09-15.7,54.76-12.35,83.05
				c1.91,17.95,5.46,35.68,10.6,52.98c2.8,9.12,6.31,18,10.49,26.57c2.2,4.19,4.76,8.18,7.67,11.92c0.12,0.15,0.23,0.31,0.34,0.47
				h-192.7c-5.63-20.08-15.84-38.57-29.82-54.04c2.21-0.77,4.31-1.51,6.26-2.19c6.33-2.22,11.11-3.89,13.51-4.65
				c36.26-11.38,54.4-27.86,53.9-48.98c-0.11-4.67-3.99-8.37-8.66-8.26c-4.67,0.11-8.37,3.99-8.26,8.66
				c0.21,8.71-6.92,21.42-42.07,32.45c-2.49,0.79-7.46,2.52-14.03,4.82c-6.06,2.12-13.53,4.74-21.7,7.53l-0.05,0.02
				c-23.81,8.62-48.07,15.94-72.66,21.94c-7.92,1.54-15.64-3.48-17.45-11.35c-1.83-4.75-2.53-9.86-2.04-14.93
				c0.23-1.75,0.63-3.5,1.02-5.25c1.73-5.87,2-12.07,0.79-18.07c-2.42-7.77-8.12-14.09-15.59-17.32c-0.6-0.34-1.21-0.69-1.81-1.04
				c0.9-1.85,1.99-3.61,3.24-5.24c1.41-1.8,2.03-4.09,1.73-6.35c-0.31-2.26-1.52-4.31-3.35-5.66c-2.03-1.5-6.86-5.12-10.34-7.9
				c0.43-0.79,0.92-1.65,1.36-2.43c1.3-2.3,2.78-4.94,4.23-7.98c2.71-5.92,3.5-12.53,2.27-18.92
				c-1.97-10.37-11.89-15.42-19.12-19.11c-2.45-1.16-4.8-2.52-7.03-4.07c-1.76-1.22-3.42-2.57-4.98-4.03
				c0.02-1.27,1.35-4.37,7.86-12.31c15.12-19.49,28.07-40.55,38.65-62.83c2.04-3.49,3.17-7.43,3.31-11.47
				c-0.86-8.52-5.38-16.25-12.39-21.17c-3.42-3.13-6.65-6.09-7.01-8.68c0.03-2.05,0.49-4.08,1.35-5.95
				c1.39-3.69,3.02-7.3,4.63-10.91c3.45-7.1,6.2-14.52,8.2-22.16l0.72-3.08c1.8-8.64,4.15-17.15,7.04-25.49
				c6.64-18.4,16.96-35.26,30.34-49.54c16.39-17.3,41.18-29.09,75.8-36.06c26.14-5.71,52.66-9.52,79.35-11.38
				c47.87-2.41,88.94,11.96,133.23,46.71c21.52,15.87,37.23,38.37,44.72,64.03C439.21,155.23,441.97,177.78,441.49,200.38z"/>
			<path class="st2" d="M405.4,142.3h-17.54c-1.95-6.62-4.6-13.01-7.91-19.06l12.41-12.41c2.9-2.9,3.3-7.46,0.96-10.82
				c-8.13-11.67-18.27-21.8-29.93-29.93c-3.36-2.35-7.92-1.95-10.82,0.95l-12.41,12.41c-6.06-3.31-12.45-5.96-19.07-7.9V57.99
				c0-4.1-2.94-7.6-6.97-8.33c-14.01-2.47-28.34-2.47-42.34,0c-4.03,0.72-6.97,4.23-6.97,8.33v17.54c-6.62,1.95-13.02,4.6-19.07,7.9
				l-12.41-12.41c-2.9-2.9-7.46-3.31-10.82-0.95c-11.67,8.13-21.8,18.27-29.93,29.93c-2.35,3.36-1.94,7.92,0.96,10.82l12.41,12.41
				c-3.31,6.05-5.96,12.45-7.9,19.06H180.5c-4.1,0-7.61,2.94-8.33,6.97c-2.49,14.01-2.49,28.34,0,42.35
				c0.72,4.03,4.23,6.97,8.33,6.97h17.54c1.95,6.62,4.6,13.01,7.91,19.06l-12.41,12.41c-2.9,2.9-3.3,7.46-0.96,10.82
				c8.13,11.67,18.27,21.8,29.93,29.93c3.36,2.34,7.92,1.94,10.82-0.95l12.41-12.41c6.06,3.31,12.45,5.96,19.07,7.91v17.54
				c0,4.1,2.94,7.6,6.97,8.33c14,2.48,28.34,2.48,42.34,0c4.03-0.72,6.97-4.23,6.97-8.33v-17.54c6.62-1.95,13.02-4.6,19.07-7.91
				l12.41,12.41c2.9,2.89,7.46,3.3,10.82,0.95c11.67-8.13,21.8-18.27,29.93-29.93c2.35-3.36,1.94-7.92-0.96-10.82l-12.41-12.41
				c3.31-6.06,5.96-12.45,7.91-19.06h17.54c4.1,0,7.61-2.94,8.33-6.97c2.49-14.01,2.49-28.34,0-42.35
				C413.01,145.23,409.5,142.3,405.4,142.3z M398.07,181.67H381.3c-3.97,0-7.41,2.76-8.26,6.64c-2.03,9.28-5.69,18.12-10.82,26.11
				c-2.16,3.34-1.69,7.74,1.13,10.55l11.87,11.87c-4.7,5.85-10.03,11.17-15.88,15.88l-11.87-11.87c-2.81-2.81-7.2-3.29-10.55-1.14
				c-7.99,5.13-16.84,8.8-26.12,10.83c-3.88,0.85-6.64,4.29-6.64,8.26v16.77c-7.46,0.8-14.99,0.8-22.45,0V258.8
				c0-3.97-2.76-7.41-6.64-8.26c-9.28-2.03-18.13-5.69-26.12-10.83c-3.34-2.16-7.74-1.68-10.55,1.14l-11.87,11.87
				c-5.85-4.7-11.17-10.03-15.88-15.88l11.87-11.87c2.82-2.81,3.29-7.21,1.13-10.55c-5.13-7.99-8.79-16.83-10.82-26.11
				c-0.85-3.88-4.29-6.64-8.26-6.64h-16.77c-0.8-7.46-0.8-14.99,0-22.46l0,0h16.77c3.97,0,7.41-2.76,8.26-6.64
				c2.03-9.28,5.69-18.12,10.82-26.11c2.16-3.34,1.69-7.74-1.13-10.55l-11.87-11.87c4.7-5.85,10.03-11.17,15.88-15.88l11.87,11.87
				c2.81,2.82,7.2,3.29,10.55,1.14c7.99-5.13,16.84-8.8,26.12-10.83c3.88-0.85,6.64-4.29,6.64-8.26V65.32
				c7.46-0.8,14.99-0.8,22.45,0v16.77c0,3.97,2.76,7.41,6.64,8.26c9.28,2.03,18.12,5.69,26.12,10.83c3.35,2.15,7.74,1.67,10.55-1.14
				l11.87-11.87c5.85,4.7,11.17,10.03,15.88,15.88l-11.87,11.87c-2.82,2.81-3.29,7.21-1.13,10.55c5.13,7.99,8.79,16.83,10.82,26.11
				c0.85,3.88,4.29,6.64,8.26,6.64h16.77C398.88,166.68,398.88,174.21,398.07,181.67z"/>
			<path class="st2" d="M178.76,250.8h-9.66c-0.79-3.03-2-5.93-3.59-8.62l6.84-6.85c3.3-3.3,3.3-8.66,0-11.96
				c-3.3-3.3-8.66-3.3-11.96,0l-6.84,6.85c-2.69-1.59-5.59-2.8-8.62-3.59v-9.66c0-4.67-3.79-8.46-8.46-8.46
				c-4.67,0-8.46,3.79-8.46,8.46v9.66c-3.03,0.79-5.93,2-8.62,3.59l-6.84-6.85c-2.14-2.14-5.25-2.97-8.17-2.19
				c-2.92,0.78-5.2,3.06-5.98,5.98c-0.78,2.92,0.05,6.03,2.19,8.17l6.84,6.85c-1.6,2.69-2.81,5.59-3.59,8.62h-9.66
				c-4.67,0-8.46,3.79-8.46,8.46c0,4.67,3.79,8.46,8.46,8.46h9.66c0.79,3.03,2,5.93,3.59,8.62l-6.84,6.85
				c-2.14,2.14-2.97,5.25-2.19,8.17c0.78,2.92,3.06,5.2,5.98,5.98c2.92,0.78,6.03-0.05,8.17-2.19l6.84-6.84
				c2.69,1.59,5.59,2.8,8.62,3.59v9.66c0,4.67,3.79,8.46,8.46,8.46c4.67,0,8.46-3.79,8.46-8.46v-9.66c3.03-0.79,5.93-2,8.62-3.59
				l6.84,6.84c3.3,3.3,8.66,3.3,11.96,0c3.3-3.3,3.3-8.66,0-11.96l-6.84-6.85c1.6-2.69,2.81-5.59,3.59-8.62h9.66
				c4.67,0,8.46-3.79,8.46-8.46C187.22,254.58,183.43,250.8,178.76,250.8z M136.47,276.17c-9.34,0-16.92-7.57-16.92-16.92
				c0-9.34,7.57-16.92,16.92-16.92c9.34,0,16.92,7.57,16.92,16.92C153.38,268.59,145.81,276.16,136.47,276.17z"/>
			<path class="st2" d="M92.19,166.21c0.52,1.7,1.2,3.34,2.03,4.91l-4.57,4.58c-2.14,2.14-2.97,5.25-2.19,8.17
				c0.78,2.92,3.06,5.2,5.98,5.98c2.92,0.78,6.03-0.05,8.17-2.19l4.59-4.59c1.56,0.83,3.2,1.51,4.89,2.03v6.49
				c0,4.67,3.79,8.46,8.46,8.46c4.67,0,8.46-3.79,8.46-8.46v-6.49c1.69-0.52,3.33-1.2,4.89-2.03l4.59,4.59c3.3,3.3,8.66,3.3,11.96,0
				c3.3-3.3,3.3-8.66,0-11.96l-4.58-4.58c0.83-1.57,1.51-3.21,2.03-4.91h6.47c4.67,0,8.46-3.79,8.46-8.46
				c0-4.67-3.79-8.46-8.46-8.46h-6.47c-0.52-1.7-1.2-3.34-2.03-4.91l4.58-4.58c2.14-2.14,2.97-5.25,2.19-8.17
				c-0.78-2.92-3.06-5.2-5.98-5.98c-2.92-0.78-6.03,0.05-8.17,2.19l-4.59,4.59c-1.56-0.83-3.2-1.5-4.89-2.03v-6.49
				c0-4.67-3.79-8.46-8.46-8.46c-4.67,0-8.46,3.79-8.46,8.46v6.49c-1.69,0.52-3.33,1.2-4.89,2.03l-4.59-4.59
				c-3.3-3.3-8.66-3.3-11.96,0c-3.3,3.3-3.3,8.66,0,11.96l4.58,4.58c-0.83,1.57-1.51,3.21-2.03,4.91h-6.47
				c-4.67,0-8.46,3.79-8.46,8.46c0,4.67,3.79,8.46,8.46,8.46L92.19,166.21L92.19,166.21z M116.49,146.31
				c5.18-1.39,10.64,0.87,13.33,5.52c2.68,4.64,1.91,10.51-1.88,14.3c-3.39,3.39-8.48,4.4-12.91,2.57
				c-4.43-1.83-7.31-6.15-7.31-10.94C107.71,152.39,111.31,147.7,116.49,146.31z"/>
			<path class="st2" d="M292.95,115.46c-30.36,0-54.98,24.61-54.98,54.98c0.03,30.35,24.63,54.94,54.98,54.98
				c30.36,0,54.98-24.61,54.98-54.98S323.31,115.46,292.95,115.46z M292.95,208.5c-21.02,0-38.06-17.04-38.06-38.06
				c0.02-21.01,17.05-38.04,38.06-38.06c21.02,0,38.06,17.04,38.06,38.06C331.01,191.46,313.97,208.5,292.95,208.5z"/>
		</g>
	</g>
</g>
</svg>
