<svg id="Layer_1" data-name="Layer 1" xmlns="http://www.w3.org/2000/svg" viewBox="0 0 621 564"><defs><style>.cls-1{fill:#f0bc5e;}.cls-2{fill:#5e5d5d;}</style></defs><title>Artboard 3</title><rect class="cls-1" x="126" y="226" width="164" height="76"/><polygon class="cls-1" points="140 39 140 118 63 118 140 39"/><circle class="cls-1" cx="481.23" cy="293.52" r="76.48"/><path class="cls-2" d="M481.23,382.29A88.77,88.77,0,1,1,570,293.52,88.87,88.87,0,0,1,481.23,382.29Zm0-161.54A72.77,72.77,0,1,0,554,293.52,72.85,72.85,0,0,0,481.23,220.75Z"/><polygon class="cls-2" points="527.09 301.34 473.15 301.34 473.15 259.35 489.15 259.35 489.15 285.34 527.09 285.34 527.09 301.34"/><path class="cls-2" d="M340.22,456.06H76a24.45,24.45,0,0,1-24.43-24.42V119.09h16V431.64A8.44,8.44,0,0,0,76,440.06H340.22a8.44,8.44,0,0,0,8.43-8.42V53.79a8.44,8.44,0,0,0-8.43-8.43H142.13v-16H340.22a24.46,24.46,0,0,1,24.43,24.43V431.64A24.45,24.45,0,0,1,340.22,456.06Z"/><path class="cls-2" d="M414.15,528.62H149.93a24.46,24.46,0,0,1-24.43-24.43v-54.4h16v54.4a8.44,8.44,0,0,0,8.43,8.43H414.15a8.44,8.44,0,0,0,8.43-8.43V359.91h16V504.19A24.46,24.46,0,0,1,414.15,528.62Z"/><path class="cls-2" d="M438.58,226.29h-16V126.35a8.44,8.44,0,0,0-8.43-8.43h-59v-16h59a24.46,24.46,0,0,1,24.43,24.43Z"/><path class="cls-2" d="M141.71,127.5H59.57a8,8,0,0,1-5.65-13.65l82.14-82.14a8,8,0,0,1,13.65,5.65V119.5A8,8,0,0,1,141.71,127.5Zm-62.82-16h54.82V56.68Z"/><rect class="cls-1" x="193.74" y="126.24" width="113.63" height="16"/><rect class="cls-1" x="193.74" y="175.52" width="113.63" height="16"/><rect class="cls-2" x="193.74" y="114.24" width="113.63" height="16"/><rect class="cls-2" x="193.74" y="163.52" width="113.63" height="16"/><rect class="cls-1" x="108.86" y="361.71" width="198.51" height="16"/><rect class="cls-2" x="108.86" y="349.71" width="198.51" height="16"/><path class="cls-2" d="M301.67,313.69H114.55V214.18H301.67Zm-171.12-16H285.67V230.18H130.55Z"/></svg>