<svg id="Layer_1" data-name="Layer 1" xmlns="http://www.w3.org/2000/svg" viewBox="0 0 621 564"><defs><style>.cls-1{fill:#f0bc5e;}.cls-2{fill:#5e5d5d;}</style></defs><title>Artboard 3</title><rect class="cls-1" x="166.63" y="172.64" width="202" height="25"/><rect class="cls-1" x="281.63" y="221.64" width="87" height="25"/><rect class="cls-1" x="166.63" y="221.64" width="87" height="25"/><rect class="cls-1" x="166.63" y="279.64" width="202" height="25"/><rect class="cls-1" x="491.63" y="425.64" width="20" height="14"/><rect class="cls-1" x="60.63" y="345.64" width="412" height="63"/><path class="cls-2" d="M463.68,418.54h-392a20,20,0,0,1-20-20V121.14a20,20,0,0,1,20-20H463.68a20,20,0,0,1,20,20v277.4A20,20,0,0,1,463.68,418.54Zm-392-301.4a4,4,0,0,0-4,4v277.4a4,4,0,0,0,4,4H463.68a4,4,0,0,0,4-4V121.14a4,4,0,0,0-4-4Z"/><rect class="cls-2" x="64.95" y="338.12" width="401.87" height="16"/><rect class="cls-2" x="184.33" y="446.86" width="166.66" height="16"/><rect class="cls-2" x="259.65" y="410.54" width="16" height="36.05"/><path class="cls-2" d="M547.19,462.86H455a22.21,22.21,0,0,1-22.18-22.18v-32h16v32a6.18,6.18,0,0,0,6.18,6.18h92.2a6.18,6.18,0,0,0,6.18-6.18V264.57a6.19,6.19,0,0,0-6.18-6.19H475.68v-16h71.51a22.21,22.21,0,0,1,22.18,22.19V440.68A22.21,22.21,0,0,1,547.19,462.86Z"/><rect class="cls-2" x="491.64" y="413.77" width="20.09" height="16"/><rect class="cls-2" x="166.35" y="164.8" width="202.61" height="16"/><rect class="cls-2" x="166.35" y="274.32" width="202.61" height="16"/><rect class="cls-2" x="281.34" y="214.08" width="87.62" height="16"/><rect class="cls-2" x="166.35" y="214.08" width="87.62" height="16"/></svg>