<svg id="Layer_1" data-name="Layer 1" xmlns="http://www.w3.org/2000/svg" viewBox="0 0 621 564"><defs><style>.cls-1{fill:#f0bc5e;}.cls-2{fill:#5e5d5d;}</style></defs><title>Artboard 3</title><rect class="cls-1" x="120.89" y="411.95" width="41.07" height="16"/><rect class="cls-1" x="198.47" y="411.95" width="41.07" height="16"/><rect class="cls-1" x="276.05" y="411.95" width="41.07" height="16"/><rect class="cls-1" x="353.62" y="411.95" width="41.07" height="16"/><circle class="cls-1" cx="298.76" cy="303.32" r="48"/><rect class="cls-1" x="162.76" y="88.32" width="395" height="55"/><path class="cls-2" d="M449.78,487.14H71.29a20,20,0,0,1-20-20V211.86a20,20,0,0,1,20-20H449.78a20,20,0,0,1,20,20V467.14A20,20,0,0,1,449.78,487.14ZM71.29,207.86a4,4,0,0,0-4,4V467.14a4,4,0,0,0,4,4H449.78a4,4,0,0,0,4-4V211.86a4,4,0,0,0-4-4Z"/><path class="cls-2" d="M545.29,372.14H461.78v-16h83.51a8.44,8.44,0,0,0,8.42-8.43V101.29a8.44,8.44,0,0,0-8.42-8.43H175.65a8.44,8.44,0,0,0-8.43,8.43v92.26h-16V101.29a24.46,24.46,0,0,1,24.43-24.43H545.29a24.46,24.46,0,0,1,24.42,24.43V347.71A24.46,24.46,0,0,1,545.29,372.14Z"/><path class="cls-2" d="M224.94,362.56a58.66,58.66,0,1,1,41.22-100.38l-11.25,11.38A42.65,42.65,0,1,0,251,337.68l9.79,12.65A58.09,58.09,0,0,1,224.94,362.56Z"/><path class="cls-2" d="M297.49,362.56a58.66,58.66,0,1,1,58.66-58.66A58.72,58.72,0,0,1,297.49,362.56Zm0-101.31a42.66,42.66,0,1,0,42.66,42.65A42.71,42.71,0,0,0,297.49,261.25Z"/><rect class="cls-2" x="120.89" y="399.95" width="41.07" height="16"/><rect class="cls-2" x="198.47" y="399.95" width="41.07" height="16"/><rect class="cls-2" x="276.05" y="399.95" width="41.07" height="16"/><rect class="cls-2" x="353.62" y="399.95" width="41.07" height="16"/><rect class="cls-2" x="167.44" y="135.73" width="390.17" height="16"/></svg>