<svg xmlns="http://www.w3.org/2000/svg" width="38.282" height="34" viewBox="0 0 38.282 34">
  <g id="Group_7935" data-name="Group 7935" transform="translate(-16 -14)">
    <g id="Layer_7" data-name="Layer 7" transform="translate(16 14)">
      <path id="Path_1" data-name="Path 1" d="M8.013,31.888.57,19.112a4.183,4.183,0,0,1,0-4.224L8.013,2.112A4.263,4.263,0,0,1,11.7,0H26.588a4.263,4.263,0,0,1,3.69,2.112l7.432,12.776a4.2,4.2,0,0,1,0,4.224L30.278,31.888A4.263,4.263,0,0,1,26.588,34H11.7a4.263,4.263,0,0,1-3.687-2.112Z" transform="translate(0.002 0)" fill="#ff8b00"/>
    </g>
    <g id="Layer_6" data-name="Layer 6" transform="translate(17.652 15.478)">
      <path id="Path_2" data-name="Path 2" d="M12.846,34.056,6.04,22.388a3.82,3.82,0,0,1,0-3.853L12.846,6.866A3.9,3.9,0,0,1,16.219,4.94h13.6A3.9,3.9,0,0,1,33.2,6.866L40,18.535a3.82,3.82,0,0,1,0,3.853L33.2,34.056a3.9,3.9,0,0,1-3.37,1.926H16.213a3.9,3.9,0,0,1-3.367-1.926Z" transform="translate(-5.518 -4.94)" fill="#2c2c2c"/>
    </g>
    <g id="Layer_2" data-name="Layer 2" transform="translate(32.959 21.307)">
      <path id="Path_3" data-name="Path 3" d="M61.039,44.638H56.66L65.8,24.92h4.382Z" transform="translate(-56.66 -24.92)" fill="#ff8b00"/>
    </g>
    <g id="Layer_3" data-name="Layer 3" transform="translate(42.156 21.307)">
      <rect id="Rectangle_1" data-name="Rectangle 1" width="4.382" height="19.715" fill="#ffa233"/>
    </g>
    <g id="Layer_4" data-name="Layer 4" transform="translate(23.755 21.307)">
      <path id="Path_4" data-name="Path 4" d="M39.513,44.638H35.131L25.91,24.92h4.382Z" transform="translate(-25.91 -24.92)" fill="#ffa233"/>
    </g>
    <g id="Layer_5" data-name="Layer 5" transform="translate(23.755 21.307)">
      <rect id="Rectangle_2" data-name="Rectangle 2" width="4.382" height="19.715" fill="#ff8b00"/>
    </g>
  </g>
</svg>
