<?xml version="1.0" encoding="utf-8"?>
<!-- Generator: Adobe Illustrator 23.0.1, SVG Export Plug-In . SVG Version: 6.00 Build 0)  -->
<svg version="1.1" id="Layer_1" xmlns="http://www.w3.org/2000/svg" xmlns:xlink="http://www.w3.org/1999/xlink" x="0px" y="0px"
	 viewBox="0 0 512 512" style="enable-background:new 0 0 512 512;" xml:space="preserve">
<style type="text/css">
	.st0{fill:#444444;}
</style>
<path class="st0" d="M136.27,88.17h16.03v15.03h-16.03V88.17z"/>
<path class="st0" d="M168.33,88.17h16.03v15.03h-16.03V88.17z"/>
<path class="st0" d="M200.39,88.17h16.03v15.03h-16.03V88.17z"/>
<path class="st0" d="M427.94,335.66h19.93v-47.09H240.47v47.09h20.93l33.07,33.06h-87.06v-33.06h17.03v-15.03h-17.03v-33.06h17.03
	v-15.03h-17.03v-33.06h33.06v32.06h15.03v-32.06h33.06v32.06h15.03v-95.19H48.09v207.41h261.4l11.13,11.13v9.8l-11.13,12.13H15.03
	V143.28h321.62v120.23h15.03V48.09h-48.09V15.03c0-8.57-6.46-15.03-15.03-15.03h-24.05c-8.56,0-16.03,6.46-16.03,15.03v33.06H120.23
	v15.03h128.25v40.08h55.11V63.13h33.06v65.13H15.03V63.13h33.06v40.08h55.11V15.03C103.2,6.46,96.73,0,88.17,0H64.13
	c-8.56,0-16.03,6.46-16.03,15.03v33.06H0v383.75h294.47l-33.07,33.06h-20.93V512h207.41v-47.09h-19.93l-60.22-60.22v-9.8
	L427.94,335.66z M192.38,368.72h-33.06v-33.06h33.06V368.72z M144.28,224.44h-33.06v-33.06h33.06V224.44z M159.31,191.38h33.06
	v33.06h-33.06V191.38z M144.28,239.47v33.06h-33.06v-33.06H144.28z M96.19,272.53H63.13v-33.06h33.06V272.53z M96.19,287.56v33.06
	H63.13v-33.06H96.19z M111.22,287.56h33.06v33.06h-33.06V287.56z M144.28,335.66v33.06h-33.06v-33.06H144.28z M192.38,320.63h-33.06
	v-33.06h33.06V320.63z M192.38,272.53h-33.06v-33.06h33.06V272.53z M207.41,224.44v-33.06h33.06v33.06H207.41z M288.56,224.44H255.5
	v-33.06h33.06V224.44z M96.19,191.38v33.06H63.13v-33.06H96.19z M63.13,335.66h33.06v33.06H63.13V335.66z M288.56,88.17h-25.05
	V15.03c0-0.28,0.73,0,1,0h24.05c0.28,0,0-0.28,0,0V88.17z M63.13,15.03c0-0.28,0.73,0,1,0h24.05c0.28,0,0-0.28,0,0v73.14H63.13
	V15.03z M255.5,303.59h177.34v17.03H255.5V303.59z M432.84,496.97H255.5v-17.03h177.34V496.97z M406.69,464.91H282.66l53-54v-22.26
	l-53-53h124.03l-54,53v22.26L406.69,464.91z"/>
</svg>
