<?xml version="1.0" encoding="utf-8"?>
<!-- Generator: Adobe Illustrator 23.0.1, SVG Export Plug-In . SVG Version: 6.00 Build 0)  -->
<svg version="1.1" id="Capa_1" xmlns="http://www.w3.org/2000/svg" xmlns:xlink="http://www.w3.org/1999/xlink" x="0px" y="0px"
	 viewBox="0 0 496.01 496.01" style="enable-background:new 0 0 496.01 496.01;" xml:space="preserve">
<style type="text/css">
	.st0{fill:#EFBB5E;}
	.st1{fill:#5E5D5D;}
	.st2{display:none;}
	.st3{display:inline;fill:#F0BC5E;}
	.st4{display:inline;fill:#5E5D5D;}
</style>
<g>
	<g>
		<g>
			<path class="st0" d="M328.01,94.47l-19.76-7.41l8.74-19.21l-24.82-24.82l-19.21,8.74l-7.41-19.76h-35.1l-7.41,19.76l-19.21-8.74
				l-24.82,24.82l8.74,19.21L168,94.47v35.1l19.76,7.41l-8.74,19.21l24.82,24.82l19.21-8.74l7.41,19.75h35.1l7.41-19.76l19.21,8.74
				l24.82-24.82l-8.74-19.21l19.75-7.41V94.47z M248.01,136.01c-13.26,0-24-10.74-24-24s10.74-24,24-24c13.26,0,24,10.74,24,24
				S261.26,136.01,248.01,136.01z"/>
			<rect x="320.01" y="304.01" class="st0" width="104" height="40"/>
			<rect x="72" y="304.01" class="st0" width="104" height="40"/>
		</g>
	</g>
	<path class="st1" d="M456.01,64.01H349.06c-6.32-13.3-15.16-25.42-26.35-35.45c-24.03-21.53-55.09-31.4-87.4-27.86
		c-38.87,4.29-72.11,29.17-88.45,63.3H40.01c-22.06,0-40,17.94-40,40v304c0,22.06,17.94,40,40,40h96v32h-32v16h288v-16h-32v-32h96
		c22.06,0,40-17.94,40-40v-304C496.01,81.95,478.06,64.01,456.01,64.01z M456.01,80.01c13.23,0,24,10.77,24,24v264h-16v-256
		c0-8.82-7.18-16-16-16h-89.3c-0.79-5.43-1.94-10.78-3.5-16C355.21,80.01,456.01,80.01,456.01,80.01z M168.01,208.01h-16v16h16v16
		h-16v16h16v8c0,13.23,10.77,24,24,24h48v48h-160v-192h60.8c5.13,17.18,14.24,33.06,27.2,46.27V208.01z M328.01,264.01v-8h16v-16
		h-16v-16h16v-16h-16v-17.73c12.96-13.22,22.25-29.03,27.37-46.27h60.63v192h-160v-48h48C317.24,288.01,328.01,277.24,328.01,264.01
		z M136.04,112.01c0,5.41,0.5,10.73,1.26,16H64v224h368v-224h-73.26c0.74-5.26,1.26-10.58,1.26-16h88v256h-400v-256
		C48.01,112.01,136.04,112.01,136.04,112.01z M152.69,100.36c5.15-43.7,40.63-78.93,84.37-83.74c3.71-0.41,7.41-0.62,11.06-0.62
		c23.7,0,46.06,8.5,63.9,24.48c20.32,18.2,31.98,44.27,31.98,71.53c0,26.3-10.5,50.86-29.54,69.17l-2.46,2.36v24.47h-16v16h16v16
		h-96v16h96v8c0,4.42-3.59,8-8,8h-112c-4.41,0-8-3.58-8-8v-8h16v-16h-16v-16h96v-16h-96v-24.47l-2.46-2.36
		C159.65,160.13,149.13,130.67,152.69,100.36z M40.01,80.01h100.62c-1.55,5.18-2.66,10.54-3.42,16h-89.2c-8.82,0-16,7.18-16,16v256
		h-16v-264C16,90.78,26.77,80.01,40.01,80.01z M344.01,480.01h-192v-32h192V480.01z M456.01,432.01h-416c-13.23,0-24-10.77-24-24
		v-24h464v24C480.01,421.24,469.24,432.01,456.01,432.01z"/>
	<rect x="216.01" y="400.01" class="st1" width="64" height="16"/>
	<path class="st1" d="M248.01,144.01c17.65,0,32-14.35,32-32s-14.35-32-32-32s-32,14.35-32,32S230.36,144.01,248.01,144.01z
		 M248.01,96.01c8.82,0,16,7.18,16,16s-7.18,16-16,16s-16-7.18-16-16S239.18,96.01,248.01,96.01z"/>
	<rect x="320.01" y="304.01" class="st1" width="16" height="16"/>
	<rect x="352.01" y="304.01" class="st1" width="16" height="16"/>
	<rect x="384.01" y="304.01" class="st1" width="16" height="16"/>
	<rect x="96" y="304.01" class="st1" width="16" height="16"/>
	<rect x="128.01" y="304.01" class="st1" width="16" height="16"/>
	<rect x="160.01" y="304.01" class="st1" width="16" height="16"/>
</g>
<g class="st2">
	<path class="st3" d="M208.01,42v64h-176v192h64v-88h256V42H208.01z"/>
	<path class="st3" d="M256.01,466h-224V322h224V466z"/>
	<path class="st4" d="M456.01,226h-72V2H68.69L0.01,70.69V498h384V338h40c13.23,0,24-10.77,24-24c0-2.82-0.57-5.49-1.47-8h9.47
		c22.05,0,40-17.95,40-40S478.06,226,456.01,226z M208.01,290v-48h192v48H208.01z M192.01,287.25l-62.04-18.61
		c-1.17-0.35-1.96-1.41-1.96-2.63s0.79-2.28,1.96-2.63l62.04-18.61V287.25z M64.01,29.31V66H27.32L64.01,29.31z M432.01,314
		c0,4.41-3.59,8-8,8h-128v16h72v144h-352V82h64V18h288v208h-168l-74.63,22.04c-7.99,2.4-13.37,9.62-13.37,17.96
		s5.38,15.56,13.37,17.96L198.84,306h225.17C428.42,306,432.01,309.59,432.01,314z M456.01,290h-40v-48h40c13.23,0,24,10.77,24,24
		S469.24,290,456.01,290z"/>
	<path class="st4" d="M208.01,34h144v16h-144V34z"/>
	<path class="st4" d="M208.01,66h144v16h-144V66z"/>
	<path class="st4" d="M32.01,290h64v16h-64V290z"/>
	<path class="st4" d="M32.01,258h64v16h-64V258z"/>
	<path class="st4" d="M32.01,98h320v16h-320V98z"/>
	<path class="st4" d="M32.01,130h320v16h-320V130z"/>
	<path class="st4" d="M32.01,162h320v16h-320V162z"/>
	<path class="st4" d="M32.01,194h288v16h-288V194z"/>
	<path class="st4" d="M336.01,194h16v16h-16V194z"/>
	<path class="st4" d="M32.01,226h64v16h-64V226z"/>
</g>
</svg>
